<?xml version="1.0" encoding="UTF-8" standalone="no"?>
<svg
   xmlns:dc="http://purl.org/dc/elements/1.1/"
   xmlns:cc="http://creativecommons.org/ns#"
   xmlns:rdf="http://www.w3.org/1999/02/22-rdf-syntax-ns#"
   xmlns:svg="http://www.w3.org/2000/svg"
   xmlns="http://www.w3.org/2000/svg"
   xmlns:sodipodi="http://sodipodi.sourceforge.net/DTD/sodipodi-0.dtd"
   xmlns:inkscape="http://www.inkscape.org/namespaces/inkscape"
   id="Layer_1"
   viewBox="0 0 599.99998 599.99999"
   version="1.1"
   sodipodi:docname="lhdlogo.svg"
   width="600"
   height="600"
   inkscape:version="0.92.1 r15371">
  <metadata
     id="metadata46">
    <rdf:RDF>
      <cc:Work
         rdf:about="">
        <dc:format>image/svg+xml</dc:format>
        <dc:type
           rdf:resource="http://purl.org/dc/dcmitype/StillImage" />
        <dc:title></dc:title>
      </cc:Work>
    </rdf:RDF>
  </metadata>
  <defs
     id="defs44" />
  <sodipodi:namedview
     pagecolor="#ffffff"
     bordercolor="#666666"
     borderopacity="1"
     objecttolerance="10"
     gridtolerance="10"
     guidetolerance="10"
     inkscape:pageopacity="0"
     inkscape:pageshadow="2"
     inkscape:window-width="1920"
     inkscape:window-height="1017"
     id="namedview42"
     showgrid="false"
     inkscape:zoom="0.46760451"
     inkscape:cx="296.70001"
     inkscape:cy="166.80763"
     inkscape:window-x="-8"
     inkscape:window-y="-8"
     inkscape:window-maximized="1"
     inkscape:current-layer="Layer_1" />
  <style
     id="style2">.st0{display:none}.st0,.st1{fill:#fff}.st2{display:none}.st3{display:inline}.st4{fill:#b53204}.st5{fill:#751b00}.st6{fill:#c53c02}</style>
  <path
     class="st0"
     d="m -343.7,-96.400012 h 1280 V 703.59999 h -1280 z"
     id="path4"
     inkscape:connector-curvature="0"
     style="display:none;fill:#ffffff" />
  <path
     class="st1"
     d="m 138.4,125.87457 c 0,-0.8 0.7,-1.5 1.6,-1.5 h 7.9 c 0.9,0 1.6,0.7 1.6,1.5 v 44.2 h 21.8 c 0.9,0 1.6,0.7 1.6,1.5 v 6.5 c 0,0.8 -0.7,1.5 -1.6,1.5 H 140 c -0.9,0 -1.6,-0.7 -1.6,-1.5 z m 82.8,-2.3 c 17.1,0 30.8,12.7 30.8,28.4 0,15.7 -13.7,28.3 -30.8,28.3 -17.1,0 -30.7,-12.5 -30.7,-28.3 0,-15.7 13.6,-28.4 30.7,-28.4 z m 0,46.5 c 10.8,0 19.7,-8.1 19.7,-18 0,-9.9 -8.9,-18.2 -19.7,-18.2 -10.8,0 -19.6,8.3 -19.6,18.2 0,9.9 8.8,18 19.6,18 z m 82.3,-46.5 c 8.6,0 14.9,2.5 20.7,7.3 0.8,0.6 0.8,1.6 0.1,2.2 l -5.2,5 c -0.6,0.6 -1.5,0.6 -2.1,0 -3.6,-2.9 -8.4,-4.6 -13.2,-4.6 -11,0 -19.1,8.4 -19.1,18.3 0,9.8 8.2,18.2 19.2,18.2 5.1,0 9.5,-1.8 13.1,-4.5 0.7,-0.6 1.6,-0.5 2.1,0 l 5.3,5 c 0.7,0.6 0.5,1.6 -0.1,2.1 -5.8,5.2 -13.2,7.6 -20.8,7.6 -17.1,0 -30.9,-12.5 -30.9,-28.3 0,-15.6 13.8,-28.3 30.9,-28.3 z m 37.9,53.9 26.6,-53 c 0.3,-0.5 0.7,-0.9 1.5,-0.9 h 0.9 c 0.9,0 1.2,0.4 1.5,0.9 l 26.4,53 c 0.5,1 -0.2,2 -1.5,2 h -7.5 c -1.3,0 -1.9,-0.5 -2.5,-1.6 l -4.2,-8.5 H 357 l -4.2,8.5 c -0.3,0.8 -1.1,1.6 -2.5,1.6 h -7.5 c -1.2,0.1 -1.9,-1 -1.4,-2 z m 37,-16.8 -8.6,-17.3 h -0.3 l -8.4,17.3 z m 41.3,-34.8 c 0,-0.8 0.7,-1.5 1.6,-1.5 h 7.9 c 0.9,0 1.6,0.7 1.6,1.5 v 44.2 h 21.8 c 0.9,0 1.6,0.7 1.6,1.5 v 6.5 c 0,0.8 -0.7,1.5 -1.6,1.5 h -31.3 c -0.9,0 -1.6,-0.7 -1.6,-1.5 z m -194.9,261.5 h -23 c -1,0 -1.7,0.8 -1.7,1.7 v 59.1 c 0,0.9 0.8,1.7 1.7,1.7 h 23 c 18.7,0 34.1,-14 34.1,-31.4 0,-17.1 -15.4,-31.1 -34.1,-31.1 z m -1.2,51.6 h -11.1 v -40.8 h 11.1 c 12.6,0 21.8,8.8 21.8,20.4 0.1,11.7 -9.2,20.4 -21.8,20.4 z m 107.4,8.6 -29.9,-60.1 c -0.3,-0.5 -0.7,-1 -1.7,-1 h -1 c -0.9,0 -1.4,0.4 -1.6,1 l -30.2,60.1 c -0.6,1.2 0.2,2.3 1.7,2.3 h 8.4 c 1.6,0 2.4,-0.9 2.8,-1.8 l 4.8,-9.6 h 29 l 4.8,9.6 c 0.7,1.2 1.4,1.8 2.8,1.8 h 8.4 c 1.5,0 2.3,-1.1 1.7,-2.3 z m -41.9,-19 9.5,-19.7 h 0.3 l 9.7,19.7 z m 68.2,-8.8 -22.1,-29.8 c -0.8,-1.2 0,-2.6 1.6,-2.6 h 9.9 c 0.8,0 1.3,0.4 1.6,0.8 l 15.5,20.5 15.5,-20.5 c 0.3,-0.4 0.8,-0.8 1.6,-0.8 h 10 c 1.6,0 2.3,1.4 1.6,2.6 l -22.4,29.7 v 28.5 c 0,0.9 -0.9,1.7 -1.8,1.7 h -8.9 c -1.1,0 -1.8,-0.8 -1.8,-1.7 v -28.4 z m -228,-135.4 c 0,-4.9 0,-9.8 0.1,-14.6 v -0.4 c 0,-6.8 0.1,-13.5 0.1,-20.3 -0.1,0 -0.1,0 -0.2,0.1 0,-0.4 -0.2,-0.6 -0.2,-1 0.2,0 0.3,-0.1 0.3,-0.2 0,0 0.1,0 0.1,0.1 0,-3.7 0,-7.4 0.1,-11.1 v -3 c 0,-4.9 0,-9.8 0.1,-14.7 v -2.1 c -0.2,-0.2 0,-0.8 -0.3,-1 h 0.2 v -8.6 h -0.8 v 0.3 c -0.2,-0.1 -0.2,-0.2 -0.3,-0.3 h -5.1 c 0.1,0.3 -0.2,0.6 0.1,0.6 -0.1,0.1 -0.3,0.1 -0.5,0.2 0.1,-0.2 -0.2,-0.7 0.3,-0.8 h -2.9 c 0,0.2 -0.2,0.2 0.1,0.2 -0.1,0.1 -0.1,0.3 -0.3,0.2 0.1,-0.1 -0.1,-0.4 0.2,-0.5 h -0.2 c 0,0.1 -0.1,0.2 -0.1,0.2 -0.1,-0.1 -0.1,-0.1 -0.1,-0.2 h -5.7 c 0.1,0.2 0.2,0.5 0,0.5 0.1,0.4 0.4,0.4 0.2,0.9 H 114 c 0.3,-0.2 0.4,-0.9 -0.2,-1 0.1,-0.2 0.3,-0.1 0.5,0 0,-0.2 -0.1,-0.3 -0.2,-0.4 h -5.7 c -0.1,0.1 -0.2,0.2 -0.1,0.2 0,0.2 -0.2,0 -0.2,-0.2 h -4.2 v 0.3 c -0.1,0 -0.1,-0.2 0,-0.2 -0.1,0 -0.1,-0.1 -0.2,-0.1 h -2.9 l -0.1,0.1 v -0.1 h -2.3 c 0,0.1 0.1,0.3 0.2,0.3 -0.3,0.2 -0.5,0 -0.6,-0.2 v -0.1 h -5.2 c 0,0.2 0,0.4 0.1,0.7 -0.2,0.2 -0.5,0.1 -0.7,0.1 0,-0.3 -0.1,-0.5 -0.1,-0.7 h -0.7 v 4.9 c 0.1,0.1 0.2,0.2 0.3,0.2 0.1,0.2 -0.1,0.1 -0.3,0.2 v 2 c 0.2,0.3 0.3,0.7 0.1,1 l -0.2,-0.2 v 11 c 0,0.1 0.1,0.1 0.1,0.2 h -0.1 v 5.7 c 0.1,0 0.1,-0.1 0.2,0 0.1,0.1 0.1,0.5 0,0.6 -0.1,-0.1 -0.2,-0.1 -0.2,-0.3 v 2.9 c 0.1,0.2 0.1,0.4 0,0.6 v 2.5 c 0.1,0.3 0.2,0.7 0.1,0.9 l -0.1,-0.1 v 2.2 c 0.3,0.3 0.3,0.8 0.3,1.2 -0.2,0 -0.3,0 -0.3,-0.1 0,6.7 -0.1,13.5 -0.1,20.2 0,0 0.1,0.1 0.2,0.1 -0.2,0.3 0.1,0.7 -0.2,0.9 v 2 c 0.1,0.3 0.5,0.7 0.2,1.1 -0.1,0 -0.2,0 -0.3,-0.1 v 1.8 c -1.3,0.1 -2.7,0.2 -4,0.3 0,0.2 -0.4,0.1 -0.6,0.2 v -0.1 c -0.8,0.1 -1.6,0.1 -2.3,0.2 -0.1,0.2 -0.3,0.3 -0.6,0.2 0,-0.1 0,-0.1 -0.1,-0.1 -0.4,0 -0.8,0.1 -1.2,0.1 0,0.6 0.5,1.2 0.1,1.7 -0.4,-0.4 -0.4,-1.1 -0.4,-1.7 -0.4,0 -0.8,0.1 -1.1,0.1 h -0.2 c -0.5,0 -1,0.1 -1.5,0.1 0.4,0.2 0.4,1 0.5,1.6 -0.1,0 -0.1,-0.1 -0.1,-0.2 -0.1,0.1 -0.1,0.3 -0.4,0.2 -0.2,-0.8 0.1,-1.3 -0.1,-1.7 -0.3,0 -0.7,0 -1,0.1 h -0.3 c -0.4,0 -0.9,0.1 -1.3,0.1 0.2,0.3 0.4,0.9 0.4,1.5 -0.1,0.2 -0.4,0.2 -0.7,0.2 0.1,-0.6 -0.1,-1.1 -0.1,-1.6 -0.8,0.1 -1.6,0.1 -2.4,0.2 0.1,0.5 0,1.2 -0.1,1.7 -0.7,-0.1 -0.7,-0.9 -0.6,-1.6 -0.8,0.1 -1.6,0.1 -2.5,0.2 0.1,0.5 0.2,0.9 0.1,1.5 -0.7,0.2 -0.8,-1.4 -0.6,-1.4 0,0 0,-0.1 -0.1,-0.1 -1,0.1 -2,0.1 -2.9,0.2 -1,0.1 -1.9,0.1 -2.9,0.2 0.3,0.3 0.5,1 0.2,1.4 -0.6,0 -0.6,-0.9 -0.5,-1.4 -1,0.1 -1.9,0.1 -2.9,0.2 0.3,0.4 0.3,0.9 0.3,1.3 h -0.4 c 0.1,-0.5 -0.2,-0.9 -0.1,-1.3 -0.8,0.1 -1.7,0.1 -2.5,0.2 0,0.2 0.1,0.5 0.4,0.7 -0.1,0.3 -0.3,0.4 -0.3,0.7 -0.2,0.1 -0.3,-0.4 -0.3,0 -0.1,-0.3 -0.1,-0.8 -0.2,-1.2 -0.1,0.2 -0.2,0.1 -0.1,-0.1 -0.9,0.1 -1.8,0.1 -2.6,0.2 0.1,0.4 0.2,0.8 0.3,1.1 -0.1,0.1 -0.3,0.2 -0.5,0.2 -0.1,-0.5 -0.1,-0.8 -0.2,-1.2 -0.9,0.1 -1.8,0.1 -2.8,0.2 0.1,0.4 0.1,0.7 0,1 -0.3,-0.1 -0.2,-0.7 -0.2,-0.8 -0.1,0 -0.2,-0.1 -0.2,-0.2 -0.8,0.1 -1.6,0.1 -2.4,0.2 0.1,0.3 0,0.7 0,1 -0.4,-0.1 -0.4,-0.5 -0.5,-0.9 -0.8,0.1 -1.6,0.1 -2.4,0.2 v -14.4 c -0.1,0 -0.1,0.1 -0.1,0.1 -0.2,0 -0.1,-0.3 -0.2,-0.2 0.1,-0.2 0.2,-0.2 0.4,-0.2 v -15.3 c -0.1,0 -0.1,-0.1 0,-0.1 v -0.9 h -0.1 c -0.1,-0.4 0,-0.6 0.1,-0.8 v -1.7 c -0.1,0 -0.2,-0.1 -0.3,-0.2 0,-0.1 0,-0.1 0.1,-0.1 v -0.2 c 0.1,0 0.1,0.2 0.2,0.2 v -0.3 c -0.1,-0.1 -0.2,-0.2 -0.2,-0.4 h 0.2 c 0,0 -0.2,-0.1 -0.1,-0.3 h 0.1 v -0.6 c -0.1,-0.1 -0.2,-0.1 -0.3,-0.1 0,-0.1 0.1,-0.1 0.2,-0.1 0.1,-0.1 0.2,-0.2 0.2,-0.4 v -1.4 c -0.2,0.1 0.1,-0.4 -0.1,-0.2 0,-0.2 0,-0.4 -0.1,-0.8 h 0.2 v -1.4 h -0.1 c 0.3,-0.4 -0.7,-1.3 0.1,-1.7 -0.1,-0.2 -0.1,-0.1 -0.3,-0.1 0,-0.2 0.2,-0.2 0.4,-0.3 v -1.4 h -0.1 c 0,0 0,-0.4 0.1,-0.5 -0.4,-0.3 -0.4,-0.9 -0.1,-1.3 h 0.1 v -1.2 c -0.1,-0.1 -0.2,-0.6 -0.1,-0.9 h 0.1 v -0.1 c -0.1,0 -0.2,0.1 -0.3,0 -0.1,-0.4 0.2,-0.6 0.1,-0.9 0.1,0 0.2,-0.1 0.2,-0.2 v -0.3 c -0.1,0 -0.2,0.1 -0.1,0.2 -0.2,0 0,-0.3 0,-0.3 h 0.1 v -1.1 c -0.1,-0.2 -0.3,-0.5 -0.4,-0.6 0.3,-0.3 0.3,-0.8 0,-1.1 0.2,0.4 0.3,-0.1 0.4,-0.3 v -0.4 c -0.1,0 -0.3,-0.1 -0.4,-0.1 0,-0.2 0.3,-0.6 0.1,-0.7 0.1,-0.2 0.1,-0.1 0.3,-0.1 0,-0.1 -0.2,-0.1 -0.2,-0.4 0.1,0 0.1,0 0.2,0.1 v -0.5 c -0.1,0 -0.2,-0.1 -0.2,-0.1 0,-0.1 0.1,-0.1 0.2,-0.1 0,-0.1 -0.3,0 -0.3,-0.2 0,-0.1 0.2,0 0.3,-0.1 v -1 h -0.2 c 0.1,-0.2 0.1,-0.5 -0.2,-0.4 -0.2,-0.3 0.3,-0.4 0.1,-0.4 0,-0.1 0.1,0 0.1,0 0.1,0 0.2,-0.1 0.2,-0.2 0.1,0 0.1,0.1 0.1,0.1 v -2.3 c -0.1,0 -0.3,-0.1 -0.5,0 0,-0.9 -0.1,-1.1 -0.1,-1.6 0.6,0.2 0.3,0.9 0.5,1.5 h 0.1 v -0.3 c -0.1,0 -0.1,-0.1 -0.1,-0.2 h 0.1 v -2.7 c -0.1,0 -0.2,0.1 -0.4,0.1 -0.1,-0.1 0,-0.2 -0.2,-0.2 0,-0.3 0.2,-0.2 0.2,-0.4 -0.2,0.2 -0.2,-0.5 -0.2,-0.6 0.4,0 0.4,0.5 0.6,0.7 v -2.4 h -1.2 v 0.1 c -0.2,0 -0.3,-0.1 -0.6,-0.1 0.4,0.1 0.3,0.3 0.1,0.6 0.2,0.1 0.2,0.3 0.3,0.5 -0.1,0.1 -0.2,0.3 -0.5,0.2 0,-0.5 0,-1 -0.1,-1.4 h -1 c 0,0 0.1,0 0.1,0.1 -0.1,0.2 -0.2,0.1 -0.3,-0.1 h -2.8 c -0.1,0 -0.1,0.1 -0.2,0 0.1,0.2 0.2,-0.1 0.3,0.1 0,0.2 -0.3,0 -0.4,0.1 0,-0.1 0,-0.1 -0.1,-0.2 h -2.4 c 0,0 0,0.1 0.1,0.1 -0.2,0.1 -0.2,0 -0.3,-0.1 h -2.8 v 0.4 h -0.3 c -0.1,-0.1 0,-0.3 0.1,-0.4 h -2.7 v 0.5 c -0.3,-0.1 -0.3,-0.3 -0.2,-0.5 h -2.3 c 0.1,0.1 0.1,0.3 0.1,0.6 -0.3,0 -0.2,-0.3 -0.2,-0.6 h -3.1 c 0.1,0.1 0.2,0.1 0.2,0.3 -0.1,0.3 -0.1,0.1 0,0.4 -0.1,-0.2 -0.4,-0.4 -0.5,-0.7 h -2.7 c 0,0.1 0.1,0.2 0,0.3 0.3,-0.2 0.3,0 0.3,0.3 -0.1,0.3 0,-0.3 -0.2,-0.2 -0.2,0 0,0.3 -0.1,0.4 -0.4,-0.1 -0.1,-0.6 -0.2,-0.8 H 8.3 v 36 c 0.1,-0.2 0,-0.3 0.2,-0.5 0.2,0.1 0,0.5 -0.2,0.5 v 94.1 c 0.1,-0.1 0.3,-0.1 0.3,0 0,0.1 -0.1,0.1 -0.1,0 0,0.2 -0.1,0.2 -0.2,0.3 v 1 h 0.1 c 0,0.1 -0.1,0.2 -0.1,0.3 v 5 c 0,0 0.1,-0.1 0.2,-0.1 0,0.2 0,0.1 0.1,0.2 -0.2,0.1 -0.2,0.1 -0.3,0.1 v 6.3 h 0.2 c 0,0.1 -0.1,0.2 -0.2,0.3 v 5 c 0.3,-0.3 0.5,-0.4 0.9,-0.5 0.1,0.4 -0.7,0.6 -0.7,1 -0.1,0 -0.2,0.1 -0.2,0.1 v 6 c 0.1,-0.1 0.2,-0.2 0.2,-0.3 h 0.2 c 0,0.2 -0.3,0.4 -0.3,0.7 -0.1,0 -0.1,0 -0.2,0.1 v 5 h 0.2 c -0.1,0.1 -0.1,0.2 -0.2,0.3 v 12.2 c 0.2,-0.2 0.4,-0.3 0.7,-0.5 0,0.1 0.1,0.1 0.1,0.1 0,0.1 -0.1,0.1 -0.1,0.1 0.1,0.1 -0.1,0.4 -0.2,0.6 -0.2,0 -0.4,0.1 -0.5,0.1 v 1 l 0.1,-0.1 c 0.1,0.2 -0.2,0.2 0.1,0.4 H 8.3 v 5.1 c 0.1,-0.1 0.2,0 0.4,-0.1 -0.1,0.1 -0.2,0.4 -0.4,0.4 v 5.3 c 0.1,-0.2 0.4,-0.3 0.7,-0.4 0.1,0.2 0,0.3 -0.1,0.5 3.1,-0.7 6.2,-1.5 9.4,-2.2 -0.1,0 -0.2,0 -0.3,-0.1 0,-0.4 0.8,-0.9 1.1,-0.8 -0.1,0.3 -0.5,0.6 -0.7,0.9 1.9,-0.4 3.8,-0.9 5.7,-1.3 0.1,-0.1 0.2,-0.1 0.3,-0.2 0,0 0,0.1 -0.1,0.1 1.2,-0.3 2.4,-0.5 3.6,-0.8 -0.1,0 -0.1,0 -0.1,-0.1 0.1,0 0.1,-0.1 0,-0.1 0.1,-0.2 0.5,-0.4 0.5,-0.5 0.2,0.1 0,0.5 -0.3,0.6 2.4,-0.5 4.9,-1.1 7.3,-1.6 1.2,-0.3 2.4,-0.5 3.7,-0.8 0,-0.2 0.3,-0.3 0.3,-0.5 0.1,0 0.1,0.1 0.2,0.2 -0.1,0.1 -0.2,0.1 -0.2,0.2 -0.1,-0.1 -0.1,0 -0.2,0.1 l 6.9,-1.5 v -3.1 c 0,0.1 -0.1,0.2 -0.3,0.3 -0.3,-0.1 0,-0.3 -0.2,-0.3 0,-0.3 0.3,-0.3 0.5,-0.3 v -6.1 c -0.2,0 -0.4,0.1 -0.5,0 0.2,-0.2 0.3,-0.5 0.6,-0.7 v -0.8 c -0.1,0 -0.1,0 -0.2,-0.1 0.1,0 0.1,-0.1 0.2,-0.2 v -5.5 c -0.2,0.2 -0.5,0.3 -0.6,0.7 -0.2,0.1 -0.2,-0.2 -0.3,-0.3 0.2,-0.1 0.6,-0.6 0.9,-0.7 v -1.2 l -0.2,0.2 c -0.2,0 -0.2,-0.1 -0.3,-0.3 0.2,-0.2 0.3,-0.3 0.5,-0.4 v -0.7 c -0.1,0 -0.2,-0.1 -0.2,-0.2 0.1,0 0.2,-0.1 0.2,-0.1 v -3.7 c -0.1,0.1 -0.2,0.2 -0.1,0.3 -0.3,0.1 -0.5,0.2 -0.7,0.2 -0.1,-0.2 0.4,-0.4 0.5,-0.4 0.1,0 0.1,-0.3 0,-0.3 0,-0.1 0.2,-0.2 0.4,-0.3 v -0.6 c -0.1,0 -0.2,0.1 -0.3,0.1 -0.1,-0.2 0.1,-0.4 0.3,-0.5 v -5 c -0.2,0.2 -0.4,0.3 -0.6,0.5 0.1,-0.1 0,-0.3 -0.2,-0.5 0.2,-0.1 0.5,-0.2 0.5,-0.4 0,0.2 0.1,0.1 0.2,0.1 0.1,-0.1 -0.1,0 0,-0.2 0.1,0 0.1,-0.1 0.2,-0.1 v -0.5 c -0.2,0 -0.4,0 -0.5,-0.2 l 0.5,-0.5 v -3.1 c -0.3,0.1 -0.8,0.4 -0.9,0.7 -0.3,0 -0.1,-0.2 -0.1,-0.3 -0.2,0.3 -0.2,-0.4 0,-0.4 0,0.1 0.1,0.1 0.1,0.2 0.1,-0.3 0.4,-0.5 0.7,-0.7 0.2,0.3 0,0.4 0.1,0.6 v -1.3 c 0,0.1 -0.1,0.2 -0.1,0.3 0,-0.2 -0.3,-0.2 -0.3,0 -0.6,-0.4 0.2,-0.5 0.5,-0.9 v -0.7 c -0.1,0 -0.1,0 -0.2,0.1 -0.1,-0.1 -0.2,-0.3 -0.2,-0.4 0.1,0 0.2,-0.1 0.3,-0.1 v -3.7 c -0.2,0.2 -0.5,0.3 -0.7,0.5 0.4,0.1 -0.1,0.3 -0.2,-0.1 0.2,-0.1 0.5,-0.4 0.6,-0.6 0.2,-0.1 0.3,0.1 0.4,0 v -1 c -0.2,0.1 -0.4,0.2 -0.5,0.3 -0.1,-0.1 -0.1,-0.2 -0.2,-0.4 0.3,0.1 0.5,-0.2 0.7,-0.4 v -0.8 c -0.1,0 -0.1,-0.1 -0.2,-0.3 0.1,0 0,-0.1 0,-0.1 0.1,0 0.2,-0.1 0.2,0 v -2.3 l -0.1,-0.1 c -0.3,0.3 -0.8,0.7 -1.1,1.1 -0.2,0.1 -0.4,-0.4 -0.1,-0.5 0.3,-0.2 0.3,-0.3 0.5,-0.3 -0.2,-0.3 0.2,0 0.3,-0.1 0,0 0.1,-0.2 0,-0.2 0.1,-0.1 0.3,0 0.5,-0.1 v -2.1 c -0.1,0 -0.2,0.1 -0.2,0.1 -0.1,-0.2 -0.2,-0.1 -0.2,-0.3 0.2,-0.1 0.3,-0.2 0.4,-0.2 v -4.5 l -0.3,0.3 v -0.2 c -0.2,0.1 0,0.2 0,0.3 -0.1,0 -0.2,-0.2 -0.3,-0.1 -0.2,-0.6 0.6,-0.5 0.6,-1 h 0.1 v -0.7 c -0.1,0.1 -0.3,0.2 -0.4,0.2 -0.1,-0.2 -0.1,-0.3 -0.1,-0.4 0.1,-0.1 0.4,-0.1 0.5,-0.2 v -2.2 c 0,0 -0.1,0.1 -0.2,0.1 0,-0.1 0.3,-0.2 0.1,-0.4 h 0.1 v -2.2 c -0.1,0.2 -0.4,0.3 -0.6,0.3 -0.1,-0.1 0,-0.2 0,-0.3 0.1,-0.1 0.1,0.1 0.3,0.1 0.1,-0.1 0,-0.2 0,-0.3 0.1,0.1 0.2,0 0.4,0 v -0.9 h -0.1 c -0.1,-0.1 -0.2,-0.2 -0.3,-0.2 0,-0.2 0.1,-0.3 0.3,-0.4 -0.1,0.1 0,0.1 0,0.1 v -1.1 c 0,-0.1 -0.1,-0.1 -0.1,-0.2 h 0.1 v -3.4 c -0.3,0 -0.3,0 -0.6,0.3 0,-0.2 -0.1,-0.3 0.1,-0.5 0.1,0.3 0.3,0 0.2,-0.1 0.1,0 0.2,0.2 0.3,0.3 v -0.2 c -0.1,0 -0.2,-0.2 -0.2,-0.3 0.1,0 0.1,0.1 0.2,0.1 v -1 c -0.1,0.1 -0.2,0 -0.2,0.1 -0.1,-0.1 0,-0.2 0.1,-0.3 0,0.1 0.1,0.1 0.1,0.2 v -2.8 c 0.2,0 0.5,-0.1 0.7,-0.1 l -0.1,-0.1 c 0.1,0 0.1,-0.1 0.2,-0.1 0,0.2 0.2,0.1 0.2,0.2 0.6,-0.1 1.2,-0.1 1.8,-0.2 h 0.1 c 1.7,-0.2 3.3,-0.4 5,-0.6 0.1,0 0.2,-0.1 0.3,-0.2 0,0.1 -0.1,0.1 -0.1,0.2 1.6,-0.2 3.1,-0.4 4.7,-0.6 0.2,-0.1 0.3,-0.1 0.6,-0.3 0.2,-0.1 -0.3,0.2 0,0.2 5.6,-0.7 11.2,-1.3 16.8,-1.9 -0.1,-0.4 0,-1.2 0.1,-1.3 0.4,0.1 0.4,0.6 0.6,0.8 0,0.2 -0.1,0.3 -0.1,0.4 0.9,-0.1 1.7,-0.2 2.6,-0.3 0,-0.1 0,-0.3 0.1,-0.4 0.2,0 0.3,0.2 0.3,0.4 3.7,-0.4 7.4,-0.8 11.2,-1.2 v 5.5 c 0.1,0.3 -0.1,0.6 0.2,1 -0.1,0 -0.1,0 -0.2,0.1 v 2.2 h 0.2 c 0,0.3 0,1.2 -0.1,1.5 -0.1,0 -0.1,-0.1 -0.1,-0.1 v 2.9 c 0.1,0 0.2,0 0.2,-0.1 0.1,0.1 0,0.2 -0.1,0.2 0.1,0.2 0.2,-0.1 0.3,0 0,0.1 0,0.1 0.1,0.2 0,0.3 -0.2,0.2 -0.2,0.4 -0.2,0 0,-0.3 0.1,-0.2 -0.1,-0.1 -0.3,0 -0.4,-0.2 v 11.4 l 0.1,-0.1 c 0.1,0.1 0,0.2 -0.1,0.3 v 6.1 c 0.1,-0.1 0.3,-0.1 0.5,-0.3 -0.1,0.2 -0.3,0.4 -0.5,0.4 0,4.7 0,9.4 -0.1,14.1 h 0.2 c 0,0.1 -0.1,0.1 -0.2,0.2 v 7.3 c 0.1,-0.1 0.2,-0.1 0.3,-0.1 0.1,0.2 -0.4,0.2 -0.2,0.3 h -0.1 v 5 c 0.2,-0.1 0.4,-0.1 0.6,-0.3 0.2,0.3 -0.4,0.4 -0.5,0.3 -0.1,0.2 0.2,0.2 0,0.3 -0.1,0 -0.1,-0.1 -0.1,-0.1 v 1.4 h 0.1 c 0.1,0.1 0,0.1 -0.1,0.2 v 6.1 c 0,0 0.1,0.1 0.1,0.2 0.1,-0.2 0.2,-0.2 0.3,-0.3 0.1,0.2 -0.1,0.2 -0.2,0.1 -0.1,0.1 0.2,0 0.2,0.2 -0.2,0.1 -0.2,0.2 -0.3,0.2 0.1,0 0.2,0.1 0.2,0.3 -0.1,0 -0.2,-0.1 -0.2,-0.3 v 1.9 c 2.1,-0.4 4.2,-0.7 6.3,-1 -0.2,0 -0.3,-0.1 -0.4,-0.4 0.3,-0.2 0.7,0 0.5,-0.4 0.2,-0.2 0.5,-0.1 0.4,0 -0.1,0.2 -0.1,0 -0.2,0 -0.1,0.2 0.1,0.2 0.1,0.4 -0.1,0 -0.3,0.2 -0.4,0.3 0.4,-0.1 0.8,-0.1 1.3,-0.2 0.1,-0.1 0.1,-0.2 0.3,-0.3 v 0.2 c 10.1,-1.7 20.2,-3.3 30.3,-4.8 0.1,-28.4 0.3,-56.9 0.4,-85.4 -0.8,-0.7 -0.8,-0.9 -0.7,-1.1 z m 418.4,24.5 c 0.1,0 0.1,0 0,0 -0.3,-0.9 -0.7,-1.7 -1.1,-2.5 -0.1,0.1 -0.2,0.2 -0.4,0.3 -0.1,-0.1 0.1,-0.4 -0.1,-0.3 0,-0.2 0.2,-0.3 0.3,-0.4 -0.4,-0.9 -0.8,-1.7 -1.2,-2.6 0,0.2 -0.3,0.4 -0.5,0.4 0,-0.1 0.1,-0.1 0.2,-0.2 0,-0.1 -0.1,-0.1 -0.1,0 0.1,-0.1 0.2,-0.2 0.4,-0.2 -0.1,-0.1 -0.1,-0.3 -0.2,-0.4 4,-2.7 7.4,-5.7 10.4,-9 0,-0.1 0,-0.1 0.1,-0.2 h 0.1 c 1,-1.1 2,-2.3 2.8,-3.5 -0.2,-0.2 -0.3,-0.4 -0.4,-0.7 0.2,0 0.3,0.3 0.4,-0.1 0.1,0.1 0.1,0 0.3,0.2 0.2,-0.1 0.1,-0.2 0.4,-0.3 -0.1,-0.2 -0.3,0.2 -0.3,-0.1 l 0.6,-0.3 c 0,0.1 -0.1,0.1 -0.1,0.2 v 0.1 c 2.5,-3.5 4.6,-7.3 6.2,-11.3 l -0.1,-0.1 h -0.1 c 0,-0.1 0.1,-0.1 0.1,0 l 0.2,-0.2 c 0.2,-0.5 0.4,-1.1 0.6,-1.6 0,-0.1 0,-0.1 0.1,-0.2 0,-0.1 0.1,-0.2 0.1,-0.3 -0.2,0.1 -0.5,0.3 -0.6,0.5 -0.1,-0.1 -0.2,-0.3 -0.2,-0.4 0.4,0 0.3,-0.2 0.7,-0.5 0.1,0.2 0.3,0 0.3,0.1 3.4,-9.3 5.1,-19.6 5.8,-30.5 l -0.2,-0.2 c 0,-0.1 0.1,-0.1 0.2,-0.1 0.2,-3.3 0.4,-6.6 0.5,-10 -0.2,0.1 -0.4,0 -0.4,-0.2 0,-0.1 0.2,-0.2 0.1,-0.3 0.2,0.1 0.2,0.1 0.3,0.1 0.1,-3.9 0.1,-7.9 0.2,-12 -0.1,0 -0.1,-0.1 -0.1,-0.2 h 0.1 v -5.1 c -0.1,0.1 -0.2,0 -0.3,-0.2 0.1,-0.1 0.2,-0.1 0.3,-0.1 v -5.4 h -14 c -0.1,0.1 -0.2,0.1 -0.3,0 h -2 c 0,0.1 0.1,0 0.2,0 0.1,0.3 -0.1,0.2 -0.3,0 h -5.6 c 0,0.1 -0.5,0.4 -0.2,0.6 -0.2,0.1 -0.4,0.2 -0.6,0.4 -0.1,-0.1 -0.1,-0.2 -0.2,-0.3 0.2,-0.1 0.4,-0.2 0.2,-0.4 0.3,-0.2 0.5,-0.2 0.8,-0.3 h -2.4 c -0.2,0.1 -0.4,0.1 -0.5,0.2 v -0.2 h -1.9 c 0,0 0,0.1 0.1,0.1 -0.1,0 -0.2,-0.1 -0.2,-0.1 h -5.8 c -0.2,0.2 -0.5,0.4 -0.8,0.6 0,-0.2 0.2,-0.4 0.4,-0.6 h -3.8 c -0.2,0.1 -0.5,0.2 -0.7,0.2 0,-0.1 -0.1,-0.1 -0.1,-0.2 h -0.5 v 3.5 c 0.1,-0.2 0.2,-0.3 0.3,-0.5 0.1,0.1 0,0.2 -0.1,0.2 0.1,0.2 0.2,0.1 0.3,0.4 -0.1,0 -0.4,0.1 -0.5,0.2 v 1.2 c 0.1,0 0.2,0 0.3,0.1 -0.1,0.1 -0.3,0.2 -0.3,0.3 v 6.6 c 0.2,-0.2 0.4,-0.2 0.4,-0.5 0.3,-0.1 0.5,0.1 0.8,0 0,0.1 -0.2,0.1 -0.1,0.3 -0.1,-0.1 -0.2,-0.1 -0.4,-0.2 -0.2,0.2 0.2,0.2 0.2,0.3 -0.2,0.2 -0.8,0.3 -0.5,0.5 0.3,0 -0.1,0.1 -0.2,0.1 -0.1,-0.1 -0.1,-0.2 -0.2,-0.3 v 1.4 c 0.1,-0.1 0.3,-0.3 0.4,-0.5 0.1,0.5 0.6,-0.1 0.7,0.3 -0.1,0 -0.4,-0.2 -0.3,0.1 -0.1,-0.1 -0.3,0 -0.4,-0.2 -0.1,0.1 -0.2,0.6 -0.1,0.6 0,0.2 -0.5,0 -0.3,0.3 h -0.1 v 1 c 0,0.1 0.1,0.1 0.1,0.2 -0.1,0 -0.1,0.1 -0.1,0.1 v 1.8 c 0,0.9 0,1.9 -0.1,2.8 0,0 0,-0.1 0.1,-0.1 0.1,0.1 0.2,0.1 0.4,0.2 0.1,-0.1 0,-0.2 -0.1,-0.3 0.2,-0.2 0.3,-0.1 0.5,-0.2 -0.1,0 -0.2,0 -0.3,-0.1 0.2,-0.1 0.3,-0.1 0.5,-0.1 0,0.2 -0.1,0.5 -0.1,0.7 -0.1,0 -0.2,-0.1 -0.3,-0.1 0,0.1 -0.3,0.6 -0.6,0.3 -0.1,0.2 0.3,0.2 0,0.4 0,-0.3 -0.1,-0.1 -0.2,0 v 1.1 c 0.1,0 0.2,0 0.3,-0.2 0.2,0.4 0.5,0.3 0.7,0.1 0,0.5 -0.7,0.5 -0.7,1 -0.1,0 -0.3,0 -0.4,0.1 v 1 c 0.4,-0.1 0.5,0 0.9,-0.3 0.1,0.3 -0.4,0.5 -0.7,0.5 0.1,0.3 0,0.5 -0.2,0.7 0,0.4 0,0.8 -0.1,1.1 h 0.1 c 0,0.1 0,0.2 -0.1,0.3 -0.1,1.1 -0.2,2.3 -0.3,3.4 0,0 0.1,0 0.2,-0.1 0.1,0.2 0.2,0.3 0.3,0.5 -0.2,0 -0.3,-0.2 -0.5,-0.3 -0.2,1.8 -0.4,3.6 -0.6,5.3 0.1,-0.1 0.1,-0.2 0.2,-0.2 0.1,0.1 0.7,-0.2 0.7,-0.5 0.3,-0.1 0.1,0.3 0,0.5 0.2,0.1 0.2,-0.3 0.4,0 -0.5,0.2 -0.1,0.4 -0.7,0.7 -0.2,0 -0.1,-0.1 -0.1,-0.2 -0.3,0.2 0,0.5 -0.3,0.7 -0.1,-0.1 -0.1,-0.2 -0.2,-0.3 -0.1,0.6 -0.2,1.1 -0.3,1.7 0.5,-0.4 1,-1.3 1.1,-0.6 -0.2,0.4 -0.5,0.8 -1,1.1 0,-0.1 -0.1,-0.2 -0.1,-0.2 l -0.9,3.9 c 0.4,-0.2 0.5,-0.4 0.9,-0.7 0.1,0.1 -0.1,0.4 0.2,0.3 -0.2,0.4 -0.6,0.6 -1,0.7 0.4,0.2 -0.2,0 0,0.3 -0.1,0 -0.1,0 -0.2,-0.1 -0.1,0.5 -0.3,1 -0.4,1.5 l 0.1,-0.1 c 0.1,0.2 -0.2,0.4 -0.1,0.6 -0.1,0 -0.1,-0.1 -0.1,-0.2 -0.1,0.5 -0.3,1 -0.5,1.4 -0.4,1.2 -0.9,2.3 -1.4,3.4 h 0.2 c 0.3,0.4 -0.2,0.4 -0.3,0.6 0,-0.1 -0.1,-0.1 -0.2,-0.1 -0.1,0.1 -0.1,0.3 -0.2,0.4 v 0.1 h -0.1 c -0.3,0.5 -0.6,1.1 -0.9,1.6 l 0.3,-0.3 c 0.1,0.6 -0.3,1.2 -1,1.4 -0.6,0.9 -1.2,1.8 -2,2.6 0.1,-0.1 0.2,-0.1 0.3,-0.2 0,0.1 -0.1,0.2 0,0.2 -0.5,0.3 -0.8,1.2 -1.3,1.3 h -0.1 c -1.3,1.3 -2.8,2.5 -4.5,3.5 -0.1,0.1 -0.2,0.2 -0.2,0.3 h -0.2 c -0.6,0.4 -1.3,0.7 -2,1 h -0.1 c -0.1,0 -0.2,0.1 -0.3,0.2 h 0.1 c -0.1,0.2 -0.6,1 -0.9,0.4 0.2,0 0.3,-0.1 0.4,-0.2 -1.4,0.6 -2.9,1 -4.6,1.4 0,0.2 -0.3,0.4 -0.4,0.5 -0.1,-0.1 -0.1,-0.2 -0.2,-0.3 0,0 0.1,0 0.1,-0.1 -0.5,0.1 -1.1,0.2 -1.6,0.3 -0.1,0.1 -0.2,0.2 -0.4,0.3 -0.1,-0.1 -0.1,-0.1 -0.1,-0.2 -1.1,0.2 -2.3,0.3 -3.6,0.3 -0.2,0.2 -0.5,0.4 -0.8,0.5 0,0.2 -0.5,0.6 -0.7,0.2 0.3,-0.1 0.6,-0.4 0.9,-0.7 -0.8,0 -1.6,0.1 -2.4,0 -0.3,0.2 -0.5,-0.2 -0.6,0.2 -0.1,0 -0.1,-0.1 -0.2,-0.1 l -0.1,-0.1 c -0.6,0 -1.2,0 -1.8,-0.1 -0.1,0.1 -0.2,0.1 -0.3,0.1 v -0.1 h -0.5 c -0.9,-0.1 -1.8,-0.1 -2.7,-0.2 v -3.1 c -0.2,0.3 -0.5,0.6 -0.6,0.8 -0.2,0.1 -0.3,-0.3 -0.5,-0.5 0.5,-0.3 0.7,-0.7 1.1,-0.9 v -1.1 c -0.1,0 -0.2,0.1 -0.3,0.1 0,-0.2 0.1,-0.4 0.3,-0.6 v -6.7 h -0.2 c 0.1,0.3 -0.5,0.8 -0.7,0.2 0.3,-0.2 0.7,-0.5 1,-0.9 v -0.7 h -0.1 c -0.2,-0.2 -0.3,-0.4 -0.4,-0.7 0.2,0 0.3,-0.1 0.5,-0.3 v -3.1 c -0.5,0.2 -1.1,0.9 -1.9,1.4 -0.2,-0.2 -0.2,-0.3 -0.3,-0.6 0.5,-0.3 1.7,-1.7 2.2,-1 v -2 c -0.4,0.3 -0.4,1.1 -1.3,1 0.1,-0.7 0.7,-1 1.3,-1.4 v -1.1 c -0.2,0.2 -0.4,0.4 -0.6,0.7 -0.1,-0.2 -0.3,-0.1 -0.5,-0.3 0.3,-0.4 0.7,-0.7 1.1,-0.9 v -0.9 c -0.3,-0.1 -0.4,-0.3 -0.4,-0.6 0.2,0 0.3,-0.1 0.4,-0.2 v -6.4 h -0.3 c 0,0.3 -0.1,0.3 -0.4,0.4 -0.5,-0.8 0.1,-0.9 0.7,-1.2 v -1.3 c -0.1,0 -0.2,0.1 -0.3,0 l -0.3,-0.6 c 0.2,-0.1 0.4,-0.2 0.6,-0.4 v -4.8 h -0.1 l 0.1,-0.1 v -1.6 c -0.2,0.1 -0.2,0.3 -0.2,0.5 -0.1,0 -0.1,0 0,-0.1 -0.2,-0.2 -0.5,0.6 -0.9,0.2 -0.1,-0.6 0.7,-0.6 1.1,-1 v -0.9 c -0.1,0.1 -0.1,0.2 -0.2,0.3 0,-0.5 -0.4,0.1 -0.5,-0.4 0.3,-0.1 0.5,-0.4 0.8,-0.7 v -1.1 c -0.1,-0.2 -0.3,-0.4 -0.3,-0.6 0.1,0 0.2,-0.1 0.3,-0.1 v -3 c -0.1,0 -0.2,-0.2 -0.3,-0.1 -0.2,0.5 -0.7,1.2 -1.5,1.3 -0.1,-0.2 0.1,-0.3 0,-0.5 0.6,-0.6 1.3,-0.9 1.8,-1.2 v -0.9 c -0.2,0.3 -0.5,0.5 -0.8,0.5 l -0.3,-0.6 c 0.3,-0.2 0.7,-0.5 0.8,-0.7 0.1,0 0.2,0 0.3,0.1 v -0.8 c 0,0 0,0.1 -0.1,0.1 -0.3,-0.3 -0.6,-0.4 -0.6,-0.8 0.3,0.1 0.5,-0.1 0.7,-0.3 v -1.4 h -0.1 l 0.1,-0.1 v -3.5 c -0.1,0.1 -0.3,0.1 -0.3,-0.1 0.1,-0.1 0.2,-0.1 0.3,-0.1 v -1.5 c -0.3,0.3 -0.7,0.6 -0.9,0.9 -0.2,0 -0.3,-0.2 -0.4,-0.3 0.3,0.1 0.2,-0.2 0.4,-0.4 0.1,0 0.1,0.1 0.1,0.2 0.1,-0.2 0.2,-0.3 0.1,-0.6 l 0.6,-0.3 v -0.8 c -0.1,0.1 -0.2,0.1 -0.4,0.2 -0.1,-0.1 -0.1,-0.2 -0.2,-0.3 0.2,-0.1 0.2,-0.2 0.2,-0.4 h 0.4 v -1.8 c 0,-0.1 -0.1,-0.2 -0.1,-0.2 h 0.1 v -3.2 h -0.1 c -0.4,0.3 -0.9,0.6 -0.9,1.1 -0.2,0.1 -0.6,-0.1 -0.3,0.3 -0.3,-0.1 -0.3,-0.6 -0.4,-0.8 0.4,0.1 0.5,-0.4 0.8,-0.6 h -1.9 c -0.2,0.2 -0.5,0.4 -0.6,0.5 -0.3,-0.1 0,-0.3 0.2,-0.5 h -2.2 l -0.3,0.3 c 0,-0.1 -0.1,-0.1 -0.2,-0.1 0,-0.1 0,-0.1 0.1,-0.2 h -1.7 c 0,0.1 -0.1,0.1 -0.2,0.2 0,-0.1 0,-0.1 -0.1,-0.2 h -9.3 c 0,0 -0.1,0 -0.1,0.1 v -0.1 H 466 c 0,0.1 -0.1,0.1 -0.2,0.1 v -0.1 h -6.9 c 0,8.3 0.1,16.6 0.1,25 0.2,-0.1 0.3,0 0.5,-0.1 0.1,0.2 -0.3,0.4 -0.4,0.3 0.1,0.2 0.1,0.3 -0.1,0.5 v 8.5 h 0.1 c 0.1,-0.1 -0.2,-0.1 -0.1,-0.3 0.1,0 0.1,0.1 0.2,0.1 0.1,-0.1 0.1,-0.2 0,-0.2 0.1,-0.1 0.3,-0.2 0.6,-0.2 0.3,0 -0.1,0.1 -0.2,0 -0.1,0.1 0,0.2 0,0.4 -0.3,0 -0.4,0.1 -0.3,0.4 -0.1,0 -0.2,-0.1 -0.3,-0.1 v 6.9 c 0,0 0.1,0 0.2,-0.1 0,0.1 0,0.2 0.1,0.4 0,0 -0.2,0 -0.3,0.1 v 1.9 c 0,0 0.1,0.1 0.1,0.2 H 459 v 6.7 c 0,0.1 0.1,0.2 0.2,0.3 h -0.1 v 8.9 c 0.3,-0.1 0,-0.3 0.2,-0.3 0.2,-0.1 0.5,0.2 0.6,-0.2 0,0.2 -0.4,0.7 -0.7,0.9 -0.1,-0.2 0.1,-0.2 -0.1,-0.4 0,3.7 0,7.4 0.1,11.2 h 0.2 c -0.1,0.1 -0.1,0.2 -0.2,0.3 0,5.5 0.1,11 0.1,16.5 0.1,0 0.1,-0.1 0.2,-0.2 0.1,0.1 0,0.5 0.2,0.5 -0.1,0.2 -0.3,0.2 -0.4,0.3 0.1,11.1 0.1,22.2 0.2,33.4 0,0.1 -0.1,0.3 0.1,0.2 0,0.1 -0.1,0 -0.1,0.1 0,3.7 0,7.5 0.1,11.2 h 0.1 c 0.1,0.4 -0.2,0.6 0,0.7 0,0 -0.1,0 -0.1,0.1 v 1 c 0.1,0.1 0,0.4 0,0.3 v 0.1 h -0.1 v 0.1 c 0.1,0.1 0,0.2 0.2,0.2 -0.1,0.1 -0.1,0.1 -0.2,0.1 v 1.2 c 0,0 0,-0.1 0.1,-0.1 0.3,0.2 0.1,0.3 0.2,0.7 h -0.3 v 1.1 c 0.1,0 0.1,-0.1 0.2,0 v 0.3 c 0,0.1 -0.2,0 -0.2,0.1 0,0.1 0.1,-0.1 0.2,0 0,0.1 0,0.2 0.1,0.2 0,0.2 -0.3,0.1 -0.4,0.1 0,-0.1 0.2,0 0.2,-0.1 0,-0.1 -0.2,0 -0.2,-0.1 v 4.7 c 0.1,0.1 0,0.2 0,0.4 v 1.7 c 0,0 0,0.1 0.1,0.1 h -0.1 v 1.3 c 0,0.2 0.1,0.3 0,0.4 0,4 0,7.9 0.1,11.9 0.1,0 0.1,0 0.2,0.1 0,0.1 -0.1,0.2 -0.2,0.2 v 1.3 c 0.1,0.1 0.2,0.3 0,0.4 0.1,0 0.1,0.3 0.2,0.3 -0.1,0.1 -0.1,0.1 -0.2,0.1 v 0.3 c 3.3,0.5 6.7,1 10,1.5 v -0.1 c 0.1,0 0.1,0.1 0.2,0.1 0.5,0.1 1.1,0.2 1.6,0.2 0,-0.1 0,-0.2 -0.1,-0.2 0.1,-0.1 0.1,-0.1 0.2,-0.1 v 0.4 c 2,0.3 4.1,0.6 6.1,0.9 -0.1,-0.1 0.1,-0.2 -0.1,-0.2 0.1,-0.3 0.4,-0.3 0.5,0 0,0.2 -0.2,0.2 -0.4,0.2 0.9,0.1 1.9,0.3 2.8,0.4 0,-0.1 0.1,0 0.2,0 1.4,0.2 2.8,0.4 4.1,0.7 0,-0.1 0.1,-0.2 0.2,-0.2 v 0.2 c 4.1,0.7 8.2,1.3 12.3,2 l -0.3,-64.1 c 4.8,0.5 9.4,1 14.3,0.6 10.8,23.2 21.5,47.2 32.1,72.2 13.7,2.8 27.4,5.8 41,9.1 v -7.4 c -12,-27.8 -24.1,-54.3 -36.2,-79.7 0,0 -0.1,-0.3 -0.3,-0.5 z m -268.7,18.1 c -0.1,0 -0.5,-1 -0.5,-1 -0.6,-1.2 -1.1,-2.4 -1.7,-3.7 l -0.1,-0.1 c -0.9,-2 -27.3,-60.2 -28.6,-62.9 h -0.4 c 0.1,-0.1 0.2,-0.2 0.2,-0.3 -1.7,-3.7 -3.4,-7.5 -5,-11.2 -0.1,-0.1 -0.2,-0.1 -0.1,-0.3 -1.8,-4 -3.6,-8 -5.4,-12.1 -0.1,-0.1 -0.1,-0.1 -0.1,-0.3 -0.6,-1.4 -1.3,-2.8 -1.9,-4.2 -0.1,0.2 -0.1,-0.2 0,-0.1 -3.3,-7.4 -6.6,-14.4 -9.9,-22.4 h -7.4 c 0.1,0 0.2,0.4 0.1,0.5 0,-0.2 0,-0.3 -0.2,-0.4 l 0.1,-0.1 h -8.7 c -1.8,4 -3.6,8.2 -5.4,12.2 l 0.5,0.2 c 0,0.1 0.1,0.3 0.1,0.4 0,0.3 -0.7,0.6 -0.8,0.9 0,0.1 -0.1,0.1 0,0 0,0.1 0,0.2 -0.2,0.2 0,0 -0.1,-0.1 -0.2,-0.1 l -1.5,3.3 v 0.1 c 0,0 -0.1,0 -0.1,0.1 0,0 0,0.1 0,0 0,0.1 0,0 -0.1,0.1 -0.7,1.6 -1.4,3.2 -2.1,4.7 v 0.1 h -0.1 c -0.1,0.3 -0.2,0.5 -0.3,0.8 0.1,0.1 0.1,0.1 0.1,0.2 -0.2,0 0,0.2 -0.1,0.2 h -0.1 v -0.1 c -0.1,0.2 -0.2,0.5 -0.3,0.7 0.1,0.1 0.2,0.2 0.3,0.4 -0.1,0 -0.1,0.1 -0.2,0.1 0,-0.2 -0.1,-0.1 -0.2,-0.2 -0.5,1.2 -1.1,2.4 -1.6,3.7 l 0.2,0.2 c 0,0.1 -0.2,0.1 -0.2,0.2 0,-0.1 0,-0.1 -0.1,-0.2 -0.1,0.3 -0.2,0.5 -0.4,0.8 0.3,0 0.3,0.3 0.4,0.6 -0.3,0 -0.4,-0.3 -0.4,-0.5 l -2.1,4.8 c 0.1,0.1 0.2,0.3 0.2,0.5 -0.1,0 -0.2,-0.2 -0.3,-0.3 -0.1,0.3 -0.3,0.6 -0.4,0.9 0.1,0.1 0.2,0.2 0.3,0.2 -0.1,0 0,0.2 -0.1,0.2 l -0.3,-0.3 c -0.1,0.2 -0.2,0.5 -0.3,0.7 0,0 0.1,0 0.1,0.1 h -0.1 c -0.3,0.6 -0.5,1.2 -0.8,1.7 l 0.1,0.1 h -0.1 v 0.1 h -0.1 c -0.1,0.2 -0.2,0.5 -0.3,0.7 h 0.1 c 0,0.1 0.1,0.3 0.3,0.2 0.1,0.3 -0.5,0.5 -0.4,0.5 -0.1,0 -0.1,-0.1 -0.2,-0.1 l -0.3,0.6 c 0.1,0.4 0.2,0.3 0.4,0.6 -0.1,0 -0.1,0.1 -0.2,0.2 0,-0.2 -0.1,-0.2 -0.2,-0.2 0,-0.2 0,-0.3 -0.1,-0.3 -0.1,0.3 -0.2,0.5 -0.3,0.8 h 0.1 c 0.1,0.1 0,0.2 -0.1,0.2 0,-0.1 -0.1,-0.1 -0.1,-0.1 -0.4,1 -0.8,1.9 -1.3,2.9 0.1,0.1 0.1,0.2 0,0.4 -0.1,0 -0.1,0 -0.1,-0.1 -0.1,0.3 -0.3,0.6 -0.4,0.9 0.1,0.1 0.2,0.1 0.2,0.3 0.1,0.1 0.2,-0.2 0.3,0 -0.2,0.1 -0.3,0.2 -0.5,0.3 0,-0.1 0,-0.2 -0.1,-0.2 -0.1,0.3 -0.2,0.5 -0.3,0.8 0.2,0.1 0.4,0.2 0.2,0.4 0.1,0 0.2,0.2 0.4,0.1 0,0.1 -0.1,0.1 -0.2,0.2 -0.1,-0.2 -0.3,-0.4 -0.5,-0.6 -0.5,1.2 -1.1,2.4 -1.6,3.6 0.1,0.2 0.3,0.4 0.3,0.5 -0.2,0.3 -0.3,0 -0.4,-0.2 l -0.3,0.6 v 0.1 c 0.1,0.2 0.3,-0.2 0.4,0.1 -0.1,-0.1 -0.1,0 -0.2,0 0.1,0 0.2,0.2 0.2,0.3 0,0 0.1,-0.1 0,-0.1 0.2,0 0,0.2 -0.1,0.2 0.1,0.1 0.1,-0.1 0.2,-0.1 0.3,0.4 -0.3,0.5 -0.6,0.7 -0.1,0 -0.2,-0.2 -0.4,-0.1 0.1,-0.1 0,-0.2 0,-0.3 0,0.1 -0.1,0.3 -0.1,0.3 0.1,0 0,0.2 0,0.3 h -0.1 l -1.2,2.7 h 0.1 c -0.1,0 -0.2,0.1 -0.2,0.1 v 0.1 c 0,0.1 0,0.1 -0.1,0.2 l -0.3,0.6 c 0.2,0.1 0.2,0.4 0.3,0.6 -0.3,0.1 -0.3,-0.1 -0.5,-0.1 -0.1,0.2 -0.2,0.5 -0.3,0.7 h 0.1 c 0.2,0.4 0.5,0.5 0.6,0.9 -0.1,0.1 -0.2,0.1 -0.3,0.1 -0.1,-0.2 -0.3,-0.5 -0.5,-0.8 -0.4,0.9 -0.8,1.8 -1.2,2.8 0,0.1 0.1,0.1 0.1,0.2 0,0.1 -0.1,0.1 -0.2,0.1 -0.1,0.3 -0.3,0.6 -0.4,1 0.1,0.1 0.2,0.3 0.3,0.4 -0.2,0.1 -0.3,0 -0.4,-0.1 -0.1,0.2 -0.2,0.5 -0.3,0.7 0.1,0.1 0.3,0.2 0.4,0.4 -0.1,0 0,0.1 0,0.2 -0.1,0 -0.1,0.1 -0.2,0.1 -0.1,-0.1 -0.2,-0.2 -0.4,-0.3 -0.6,1.3 -1.1,2.6 -1.7,3.8 v 0.1 H 180 c -0.1,0.3 -0.3,0.7 -0.4,1 0.1,0.1 0.2,0.2 0.3,0.4 -0.1,0 -0.2,0.1 -0.3,0.1 -0.1,0 -0.1,-0.1 -0.2,-0.2 -0.1,0.2 -0.2,0.5 -0.3,0.7 0.2,0.2 0.5,0.5 0.4,0.7 -0.1,-0.2 -0.3,-0.4 -0.4,-0.6 -0.1,0.3 -0.3,0.6 -0.4,0.9 0.2,0.3 0.5,0.4 0.7,0.8 0,0.1 0,0.1 -0.1,0.2 -0.2,-0.3 -0.7,-0.4 -0.6,-0.8 0,-0.1 -0.1,-0.1 -0.1,-0.1 -0.4,0.9 -0.8,1.8 -1.2,2.8 0.1,0.1 0.2,0.3 0.1,0.4 -0.1,0 -0.2,0 -0.3,-0.1 -0.1,0.3 -0.2,0.6 -0.4,0.9 0.1,0.1 0.1,0.3 0.3,0.5 -0.1,0 -0.2,-0.1 -0.4,-0.2 -0.1,0.3 -0.2,0.6 -0.4,0.8 0.1,0.1 0.4,0.3 0.4,0.6 -0.3,0 -0.4,-0.3 -0.5,-0.4 -0.2,0.4 -0.3,0.7 -0.5,1.1 0.2,0.1 0.3,0.5 0.5,0.6 -0.3,0.2 -0.6,-0.3 -0.5,-0.6 -0.4,1 -0.8,2 -1.3,3 0.1,0.1 0.1,0.3 0.3,0.4 0,0.1 -0.1,0.1 -0.1,0.1 -0.1,-0.1 -0.1,-0.2 -0.1,-0.4 h -0.1 c -0.2,0.4 -0.3,0.7 -0.5,1.1 0,0 0.1,-0.1 0.2,-0.1 0.2,0.1 0.3,0.3 0.4,0.4 0,0.1 -0.3,-0.1 -0.1,0.2 0,0.1 -0.2,-0.1 -0.2,0 -0.1,0 -0.2,-0.2 -0.3,-0.4 -0.4,0.9 -0.8,1.9 -1.2,2.9 v 0.1 c -10,23.3 -20,47 -30,71.3 v 5.9 c 12.2,-1.4 24.4,-2.7 36.6,-3.9 l 8.7,-20.1 c 9.3,-0.7 18.7,-1.3 28,-1.8 -0.1,0 -0.1,-0.1 -0.3,0 -0.1,-0.2 0.1,-0.2 0.1,-0.4 0.3,-0.1 0.1,0.3 0.3,0.3 0,0.1 0,0.1 -0.1,0.1 3.3,-0.2 6.6,-0.4 9.9,-0.5 0.1,-0.1 0.2,-0.2 0.2,-0.3 0.2,0 0.2,0.2 0.2,0.3 0.5,0 0.9,0 1.4,-0.1 0.1,-0.4 -0.1,-0.7 0,-1.3 0.2,0.1 0.2,0.3 0.4,0.3 -0.2,0.4 0.1,0.7 -0.2,1 0.4,0 0.7,0 1.1,-0.1 0,-0.2 0.1,-0.5 0.2,-0.6 0.1,0.1 0.1,0.4 0.1,0.6 2.9,-0.1 5.9,-0.3 8.8,-0.4 0,-0.1 0,-0.1 -0.1,-0.2 0.2,-0.1 0.3,0 0.4,0.2 0.9,0 1.8,-0.1 2.7,-0.1 v -0.2 c 0.1,0 0.1,0.1 0.2,0.2 0.5,0 1,0 1.5,-0.1 0.1,-0.3 -0.2,-0.2 -0.2,-0.5 0.3,0 0,-0.3 0.2,-0.4 -0.2,0 -0.3,-0.6 -0.1,-0.9 0.3,0 0.4,0.6 0.2,0.7 0,0.2 0.3,0 0.4,0.1 -0.1,0.3 0,0.5 0,0.9 h 0.9 v -0.2 c 0.1,0 0.2,0 0.2,0.1 0.5,0 0.9,0 1.4,-0.1 0.6,1.2 1.1,2.4 1.7,3.7 v -0.1 c 0.8,0.2 0.7,-1.3 0.6,2.7 H 248 c 0.8,0 1.6,2.7 2.4,4.5 0,-0.2 0,-0.6 0.1,-0.8 0.2,0.4 0.6,0.9 0.6,1.3 0,0.2 -0.1,0.1 -0.2,0 1.1,2.5 2.3,4.9 3.4,7.3 0.5,0 1,0.2 1.6,0.2 -0.2,-0.2 -0.3,-0.5 -0.4,-0.5 h 0.5 v 0.4 c 0.9,0 1.9,-0.1 2.8,-0.2 v -0.2 c 0.1,0.1 0.2,0.1 0.2,-0.2 0.1,0.1 0.1,0.2 0.2,0.4 0.9,0 1.7,-0.1 2.6,-0.1 v -0.3 c 0.1,-0.1 0.2,0 0.2,-0.2 0.1,0 0.1,0 0.1,0.1 0,0.1 0.1,0 0.1,0 0.1,0.1 0.1,0.2 0.1,0.4 0.8,0 1.7,-0.1 2.5,-0.1 -0.2,-0.5 -0.2,-1.2 0.4,-1.3 -0.3,0.4 0.1,0.8 0.3,1.3 0.8,0 1.6,0 2.4,-0.1 -0.1,-0.3 -0.1,-0.7 0,-0.8 0.1,-0.1 0.1,0 0.3,-0.1 -0.1,0.3 0.1,0.6 0.2,0.9 0.8,0 1.7,-0.1 2.5,-0.1 0,-0.3 0.1,-0.6 0.1,-0.8 0.3,0.1 0.4,0.4 0.4,0.8 0.9,0 1.7,0 2.6,-0.1 0,-0.3 0.1,-0.6 0.2,-0.7 0.3,0.1 0.4,0.4 0.4,0.7 h 2.7 c -0.1,-0.4 -0.1,-0.8 -0.1,-0.8 0,-0.6 0.3,0.5 0.5,0.7 h 2.8 c -0.2,-0.3 -0.2,-0.4 -0.2,-0.7 0.4,0 0.3,0.6 0.2,0.7 1.1,0 2.2,0 3.2,-0.1 0,-0.4 -0.2,-0.5 -0.3,-0.8 -0.1,-0.3 0.2,-0.2 0.2,-0.5 0.6,-0.1 0.6,0.8 0.6,0.7 0,0.1 0.3,0.3 0.2,0.5 h 2.6 c -0.2,-0.2 -0.1,-0.8 -0.2,-0.9 0.3,-0.2 1.3,0.6 1.1,0.9 1.3,0 0.6,-0.1 4.6,-0.1 v -5.5 c 0.1,0.3 -13.1,-25.8 -13.5,-26.8 z m -79.5,-95.2 c 0,-0.1 0.1,-0.1 0,-0.2 0,0.1 0.1,0.1 0.1,0.2 0,0.1 0,0 -0.1,0 z m 34.4,78.6 c -0.2,0 -29.2,0.3 -33.3,0.5 l 0.9,-2.1 c -0.2,0 -0.3,-0.1 -0.2,-0.3 0.1,0 0.1,0 0.1,0.1 0,0.1 0.1,0.1 0.2,0 2.2,-5.3 4.3,-10.6 6.5,-15.8 v -0.1 h 0.1 c 0.2,-0.5 0.5,-1 0.7,-1.5 -0.1,0 0,0 0,0 v 1.1 h -0.1 c 0.6,-4 1.2,-3.7 1.9,-5.2 -0.1,0 -0.1,-0.5 0,-0.6 0,0.1 0,-0.1 0.1,0 0.3,-0.7 0.6,-1.6 0.9,-2.3 0,-0.1 0,-0.2 -0.1,-0.2 0.1,-0.2 0.2,-0.1 0.2,0 0.4,-1 0.8,-2 1.3,-3.1 0,-0.1 -0.1,-0.2 -0.1,-0.3 h 0.2 c 0.1,-0.3 0.2,-0.6 0.4,-0.9 -0.1,0 -0.1,-0.2 -0.2,-0.3 0.1,0 0.2,0.1 0.2,0.2 0.7,-1.6 1.3,-3.3 2,-4.9 0.1,-0.2 -0.4,-0.8 -0.1,-0.6 0.1,0 0.2,0.1 0.3,0.1 0.6,-1.3 1.1,-2.7 1.7,-4 0,0.1 1,2.4 1.5,3.5 0.1,-0.1 4.5,10.6 4.6,10.6 0,0 1.5,3.2 1.4,3.3 l 1.6,3.7 v 0.1 c 0.8,2 1.7,3.9 2.5,5.9 0,-0.1 0,-0.2 0.1,-0.2 0.1,0 0.1,0 0.2,0.1 v -0.1 c 0,0 0.1,0 0.1,0.1 0.1,0.1 0,0.5 0,0.7 -0.1,0 -0.1,-0.1 -0.2,-0.2 l 0.3,0.6 h 0.1 v 0.4 c 0,0.7 4.5,11.4 4.2,11.7 z m 183.8,-4.2 c -0.1,0.2 -0.2,0.5 -0.3,0.7 -1.6,0.4 -3.4,0.5 -5.2,0.1 -6.3,-1.7 -13.9,8.2 -10.6,13.8 0.9,1.5 1.6,3.1 1.5,4.9 -2.5,2.6 -9.7,6.6 -13.8,7.8 -1.4,-0.8 -2.6,-2.2 -3.4,-3.6 -0.9,-1.6 -2.7,-2.5 -4.8,-2.9 -2.7,0.8 -5.7,1.2 -8.8,1.3 -1.9,0.9 -3.3,2.3 -3.8,4 -0.4,1.7 -1.2,3.3 -2.5,4.5 -1.3,0 -3.1,-0.2 -4.9,-0.7 v 0.1 c -0.1,0 -0.2,0 -0.2,-0.1 -3.5,-0.8 -7.3,-2.2 -9.8,-3.2 -0.3,-1.8 -0.5,-3.6 -0.1,-5.3 0.1,-0.4 0.2,-0.9 0.2,-1.3 0,0.1 -0.2,0.1 -0.2,0.3 -0.2,-0.1 0.2,-0.7 -0.2,-0.7 0.1,-0.2 0.3,0.1 0.3,0.2 0,-1.1 -0.3,-2.2 -0.8,-3.3 h -0.1 v -0.1 c -0.2,-0.4 -0.5,-0.8 -0.8,-1.3 -1.6,-1.2 -3.1,-2.4 -4.5,-3.8 -2.7,-1.5 -5.8,-2 -7.9,-0.7 -0.9,0.5 -1.9,0.9 -2.9,1.1 0,0.2 -0.3,0.5 -0.3,0.6 -0.2,0 -0.1,-0.3 0,-0.6 -0.5,0.1 -1.1,0.1 -1.6,0.1 h -0.4 c -0.3,-0.4 -0.7,-0.9 -1.1,-1.4 h -0.3 c 0.1,-0.2 -0.1,-0.4 -0.2,-0.5 v -0.2 c -2.4,-3.4 -5.1,-8.4 -5.9,-10.9 0.6,-1.6 1.8,-2.8 3.3,-3.7 0,-0.1 0,-0.2 0.1,-0.3 h 0.2 c 0,0.1 -0.1,0.1 -0.2,0.1 0,0 0,0.1 0.1,0.1 0.1,0 0.1,-0.1 0.2,-0.1 0.2,-0.1 0.4,-0.3 0.6,-0.5 0,-0.1 -0.1,-0.3 -0.1,-0.5 0.2,0.2 0.2,-0.2 0.3,-0.3 0.1,0 0.2,0.2 0.3,0.4 0.4,-0.3 0.7,-0.7 1,-1.1 -0.1,-0.2 0.1,-0.5 0.1,-0.6 0.1,0.1 0.1,0.2 0.2,0.2 0,-0.1 0.1,-0.1 0.1,-0.2 -0.1,-0.1 -0.1,-0.1 -0.1,-0.3 0.1,0 0.2,0 0.2,0.1 1.6,-2.9 1.8,-6.9 0.3,-10 -0.2,0 -0.2,0.2 -0.4,0.2 0.2,-0.3 -0.1,-0.1 -0.2,-0.2 0,-0.2 0.2,-0.3 0.3,-0.4 0,0 0,-0.1 -0.1,-0.1 0,0.1 -0.1,0.1 -0.1,0.2 -0.3,0 0.1,-0.4 -0.1,-0.4 -1,-1.6 -2.5,-2.9 -4.5,-3.5 h -0.1 l -0.1,-0.1 c -0.1,0 -0.1,-0.1 -0.2,-0.1 -1.9,-0.5 -4.2,-2.1 -4.6,-2.9 0,-0.3 0.1,-0.6 0.1,-1 v -0.2 c 0.1,-0.4 0.1,-0.9 0.2,-1.5 h -0.1 0.1 c 0.2,-1 0.4,-2.1 0.7,-3.2 -0.1,0 -0.1,-0.8 0.2,-0.7 0.6,-2.2 1.2,-4.5 1.8,-6.2 v -0.2 h 0.1 c 0.2,-0.5 0.4,-0.9 0.5,-1.3 1.7,-0.7 3.7,-0.8 5.7,-0.3 2.1,0.5 4.3,-0.4 6.2,-2 0.5,-1.1 1.1,-2.2 1.7,-3.3 -0.1,0.1 -0.2,0.1 -0.3,0.1 0,-0.1 -0.1,-0.1 -0.1,-0.2 0.1,-0.2 0.3,-0.1 0.3,-0.2 0.1,0 0.1,0 0.2,0.1 0.1,-0.1 0,-0.2 0,-0.3 0.2,0 0.1,0 0.2,-0.1 v 0.1 c 0.5,-0.9 1.1,-1.7 1.7,-2.6 0.1,0 0.1,-0.1 0.2,-0.1 0.3,-0.4 0.6,-0.8 1,-1.2 0.1,-0.7 0.2,-1.4 0.2,-2 -0.2,0.2 -0.3,0.3 -0.1,0.6 -0.2,-0.1 -0.4,-0.1 -0.5,-0.4 0.2,-0.1 0.1,0 0.3,-0.1 0.1,-0.1 0.1,-0.4 -0.1,-0.2 0,-0.2 0.2,-0.2 0.3,-0.3 -0.1,-0.6 -0.2,-1.2 -0.5,-1.7 -0.2,-0.4 -0.4,-0.7 -0.5,-1.1 -0.1,0 -0.2,0.1 -0.3,0.1 -0.1,-0.1 0.1,-0.2 0,-0.3 h 0.2 c -0.3,-1.1 -0.4,-2.2 -0.6,-3.3 -0.1,0.1 -0.2,0.1 -0.3,0.2 -0.1,0 -0.1,-0.1 -0.2,-0.2 0,-0.2 0.3,0 0.2,-0.2 0.1,-0.1 0.2,-0.1 0.3,-0.1 v -0.3 c 1.4,-1.2 3.8,-2.7 6.3,-4.2 l 0.2,-0.2 c 0.4,-0.2 0.9,-0.5 1.3,-0.7 -0.1,-0.2 0.6,-0.6 0.7,-0.7 0,0.2 -0.1,0.3 -0.3,0.5 1.9,-1 3.6,-1.8 4.9,-2.2 0.6,0.2 1.2,0.7 1.9,1.3 0.2,-0.2 0.3,-0.4 0.5,-0.4 0.1,0.2 -0.3,0.2 -0.1,0.4 -0.1,0 -0.2,0.1 -0.3,0.2 0.5,0.4 0.9,1 1.3,1.5 h 0.1 v 0.1 c 0.1,0.2 0.3,0.4 0.4,0.6 0.2,0.4 0.6,0.7 0.9,1.1 l 0.2,-0.2 c -0.1,0 -0.2,0.1 -0.2,0.2 0.3,0.2 0.5,0.4 0.8,0.6 0.4,-0.1 0.6,-0.5 0.9,-0.7 0.1,0.4 -0.3,0.7 -0.6,0.9 0.1,0 0.1,0.1 0.2,0.1 1.3,-0.3 2.6,-0.6 4,-0.7 0,0 0,-0.1 0.1,-0.1 l 0.1,0.1 c 0.2,0 0.4,0 0.6,-0.1 -0.1,0 -0.2,-0.2 -0.2,-0.3 0.1,-0.1 0.3,-0.2 0.3,-0.1 0.1,-0.1 -0.1,-0.1 -0.1,-0.2 0.1,-0.1 0.2,0 0.2,-0.1 -0.1,0.3 0.1,0.1 0.2,0 0.1,0.2 0,0.4 0.3,0.2 0,0.2 -0.2,0.2 -0.3,0.3 -0.1,-0.1 0,-0.1 0,-0.2 -0.1,0.1 -0.1,0.1 -0.1,0.3 -0.1,-0.1 -0.3,-0.2 -0.3,0.1 0.6,-0.1 1.2,-0.1 1.8,-0.1 0.1,-0.2 0.3,-0.3 0.6,-0.5 -0.1,0.3 -0.4,0.1 0,0.4 -0.1,0 -0.2,0.1 -0.3,0.1 h 1.5 v -0.1 c 0.1,0 0.2,0 0.2,0.1 h 0.9 c 1,0 2.1,0.1 3,0.1 0.4,-0.3 0.7,-0.5 1,-0.8 -0.2,0.1 -0.4,0.1 -0.6,0.2 -0.1,-0.1 0,-0.2 -0.1,-0.3 0.2,0.1 0.3,-0.1 0.4,-0.2 0,0.1 0.1,0 0.2,0 v 0.1 c 0.2,-0.2 -0.2,-0.3 -0.1,-0.5 0.1,-0.1 0.2,0.1 0.3,0 0,0.2 -0.2,-0.1 -0.3,0.1 0.1,-0.1 0.2,0.2 0.3,0.2 0,0.1 -0.1,0.2 -0.1,0.2 0.6,-0.7 1.1,-1.4 1.4,-2.3 0.2,-0.7 0.5,-1.5 0.9,-2.1 -0.1,0 -0.1,-0.3 0.1,-0.3 0,0 0,0.1 0.1,0.1 l 0.1,-0.1 v -0.1 c 0.5,-0.8 1.1,-1.5 1.7,-1.9 5,0.5 11.8,2.5 14.6,3.9 0.4,1.3 0.6,3.5 0.2,5.3 -1.5,5.8 8.8,13.5 13.8,10.6 1.6,-0.9 3.3,-1.3 5,-1.2 2.2,2.6 5.9,8.4 7.3,12.7 6.4,0.2 12.7,0.5 19.5,0.8 -5.8,-41.9 -37.8,-59.3 -67.7,-59.7 0.1,0.3 -0.5,0.4 -0.6,0.7 -0.2,0 0,-0.2 -0.2,-0.4 0.2,0 0.6,-0.3 0.8,-0.3 H 368 c -1.3,0 -2.6,0 -3.9,0.1 v 0.1 c -0.1,0 -0.1,-0.1 -0.2,-0.1 -1,0.1 -2,0.1 -2.9,0.2 0,0.1 0,0.1 0.1,0.2 -0.3,0.2 -0.3,0.3 -0.6,0.4 -0.1,0 -0.1,-0.1 -0.2,-0.2 0.3,-0.1 0.3,-0.2 0.4,-0.4 -0.5,0 -1,0.1 -1.6,0.2 l 0.1,0.1 h -0.4 c -0.4,0 -0.8,0.1 -1.2,0.1 v 0.1 h -0.2 c -1,0.1 -2,0.3 -3,0.5 0.1,0.1 0,0.3 0.2,0.3 -0.4,0.3 -0.6,0.2 -0.9,0.4 -0.1,-0.1 -0.2,-0.3 -0.2,-0.4 0.1,-0.1 0.1,-0.1 0.2,-0.1 -0.9,0.2 -1.8,0.3 -2.7,0.5 -0.1,0.2 -0.3,0.4 -0.3,0.4 0,0 0,0.1 -0.1,0.1 0.1,0.1 0.2,0.1 0.3,0.1 -0.1,0.2 -0.5,0.2 -0.6,0.4 -0.1,0 -0.3,-0.1 -0.2,-0.3 0.2,0.3 0.1,-0.2 0.4,-0.1 0.1,-0.2 0.2,-0.3 0.3,-0.4 -0.6,0.1 -1.2,0.3 -1.9,0.5 -0.1,0 -0.1,0.1 -0.2,0.1 v -0.1 c -0.2,0.1 -0.5,0.1 -0.7,0.2 l 0.1,0.1 c 0.1,0.1 -0.2,0.1 -0.2,0 -0.1,0 0,0 0,0.1 -0.1,0.1 0,-0.1 -0.1,-0.1 -0.8,0.2 -1.5,0.4 -2.3,0.6 -0.1,0 -0.1,0.1 -0.2,0.1 l -0.1,-0.1 c -0.1,0 -0.2,0 -0.3,0.1 v 0.2 h -0.2 v -0.1 c -0.9,0.3 -1.9,0.6 -2.8,0.9 -0.1,0.2 -0.7,0.3 -0.7,0.2 l -0.9,0.3 c 0,0.2 -0.1,0.2 -0.2,0.1 -1.2,0.5 -2.5,1 -3.7,1.5 -0.1,0.2 -0.9,0.6 -1,0.4 -1.7,0.8 -3.4,1.6 -5,2.5 l -0.1,0.1 c -0.5,0.3 -1.1,0.6 -1.6,0.9 h -0.1 l -0.6,0.3 c -0.1,0.1 -0.4,0.3 -0.4,0.3 -0.3,0.2 -0.5,0.3 -0.8,0.5 0,0 0,0.1 -0.1,0 -0.1,0.1 -0.2,0.1 -0.3,0.2 0,0.2 -0.8,0.5 -0.8,0.5 -0.4,0.3 -0.9,0.6 -1.3,0.9 0,0 -0.7,0.6 -0.7,0.5 -2,1.4 -3.9,2.9 -5.8,4.5 0.1,0 -1,1.1 -1.1,0.9 l -0.6,0.6 v 0.1 H 316 c -0.2,0.2 -0.4,0.4 -0.6,0.5 0,0.3 -0.2,0.6 -0.5,0.5 -0.1,0.2 -0.2,0.2 -0.3,0.2 l -1.7,1.7 -0.7,0.8 c -0.7,0.7 -1.3,1.5 -2,2.2 0.1,0 0,0.2 -0.1,0.2 -0.2,0.2 -0.4,0.5 -0.6,0.7 -0.6,0.7 -1.2,1.5 -1.8,2.3 l 0.1,-0.1 c 0,0.2 -0.1,0.2 -0.1,0.1 -0.1,0.2 -0.3,0.3 -0.4,0.5 v 0.2 c -0.1,0.1 -0.2,0.1 -0.2,0.1 -0.3,0.4 -0.6,0.9 -0.9,1.3 0.4,-0.1 -0.1,0.3 -0.1,0.1 -0.6,0.8 -1.2,1.7 -1.7,2.6 0.1,0.1 -0.1,0.6 -0.4,0.7 -0.3,0.5 -0.6,0.9 -0.8,1.4 0.2,-0.2 0.4,0.2 -0.1,0.2 -1,1.8 -2,3.7 -2.9,5.7 0.1,0.1 -0.1,0.4 -0.3,0.5 -0.2,0.5 -0.4,1 -0.7,1.5 0,0 0.1,0.2 -0.1,0.3 v 0.2 c -0.2,0.5 -0.4,0.9 -0.6,1.4 0.1,0 0,0.2 -0.1,0.2 -0.9,2.4 -1.8,4.9 -2.5,7.6 0.1,0 0,0.4 -0.1,0.3 -1.6,5.9 -2.5,12.3 -2.8,19.2 0.1,0.2 0.1,0.7 0,0.6 0,0.9 -0.1,1.8 -0.1,2.7 0,5 0.4,9.8 1.2,14.4 0.1,-0.1 0.1,-0.1 0.3,-0.1 0,0.2 -0.2,0.3 -0.2,0.4 0.2,1 0.3,2 0.5,3 0,0.1 0.1,0.1 0.3,0 -0.1,0.1 -0.2,0.3 -0.2,0.5 0.4,1.7 0.8,3.4 1.3,5.1 0,-0.2 0.1,-0.5 0.2,-0.7 0.3,0.2 0,0.6 0.2,0.9 -0.1,0 -0.2,0 -0.3,0.1 0.6,2.2 1.3,4.3 2.1,6.4 h 0.1 c 0,0.1 0.1,0.3 0.1,0.5 3.3,8.5 8,15.9 13.6,22.1 0,-0.1 0,-0.2 0.1,-0.3 0.2,0.2 0.3,0.4 0.3,0.7 2,2.1 4,4.1 6.2,6 0.1,-0.1 0.2,-0.2 0.4,-0.2 -0.1,0.1 0,0.4 0,0.6 1,0.9 2,1.7 3.1,2.5 v -0.2 c 0,0.1 0,0.2 0.1,0.2 2.5,1.9 5.1,3.6 7.8,5.2 0,-0.1 0,-0.2 -0.1,-0.3 0.2,-0.2 0.2,-0.2 0.3,-0.5 0.2,0.2 0.1,0.6 0.2,1 11.6,6.6 24.7,10.3 37.8,11.1 14.3,0.9 28.9,-1.5 41.1,-8.6 v -0.2 c 0.1,0 0.2,0.1 0.2,0.1 1.1,-0.7 2.2,-1.3 3.3,-2.1 0,-0.1 0.1,-0.3 0.1,-0.4 v 0.3 c 0.2,-0.2 0.5,-0.4 0.7,-0.5 0,0 -0.1,-0.1 -0.2,-0.1 0.1,-0.2 0.2,0 0.3,-0.1 1.1,-0.8 2.1,-1.6 3.1,-2.4 -0.1,-0.1 0.2,-0.1 0.1,-0.2 0,0 0.1,0 0.1,0.1 0.2,-0.2 0.5,-0.4 0.7,-0.6 h -0.1 c 0,-0.1 0.2,-0.3 0,-0.3 0.1,-0.1 0.2,0.1 0.3,0.2 0.2,-0.2 0.5,-0.4 0.7,-0.7 0,-0.1 -0.1,-0.1 -0.2,-0.2 0,-0.1 0.1,-0.1 0.2,-0.1 0,-0.1 -0.1,-0.1 -0.1,-0.2 -0.1,0 -0.1,0.1 -0.1,0.1 -0.1,0.1 0.1,-0.2 0.1,-0.3 0.1,0 0,0.1 0.2,0.1 -0.3,0.1 0.1,0.3 -0.1,0.5 0,0 0,0.1 0.1,0.1 l 0.6,-0.6 v -0.3 c 0.1,0 0.1,0.1 0.1,0.2 v -0.4 h 0.1 c 0,-0.1 -0.1,-0.1 -0.1,-0.2 0.1,-0.1 0.1,0.2 0.1,0 0,0.1 0,0.1 0.2,0 v 0.2 l 0.4,-0.4 c 0,-0.1 0.1,-0.3 0,-0.4 0,-0.1 0.1,-0.1 0.2,0 0,-0.1 -0.1,-0.1 -0.1,-0.2 0.2,0 0.2,0.2 0.2,0.3 l 0.6,-0.6 c 0,-0.1 0,-0.4 -0.1,-0.3 -0.1,-0.1 0.1,-0.2 0.1,-0.4 h 0.1 c 0.1,0.1 0.1,0.2 0.1,0.4 0.2,-0.2 0.3,-0.4 0.5,-0.6 v -0.7 c 0.2,-0.1 0.1,0.2 0.3,0.1 v 0.2 c 0.2,-0.2 0.4,-0.4 0.6,-0.7 0,-0.1 0,-0.1 0.1,-0.1 l 0.1,-0.1 h -0.2 c 0.2,-0.2 0,-0.4 -0.1,-0.5 0.2,-0.1 0.1,-0.2 0,-0.3 0.2,0 0.1,0.3 0.3,0.3 -0.1,0.2 -0.1,0.3 0,0.5 0.2,-0.3 0.5,-0.5 0.7,-0.8 0,-0.1 -0.1,-0.3 -0.1,-0.2 -0.1,0 0.1,-0.1 0,-0.2 h 0.2 v 0.3 c 0.2,-0.2 0.4,-0.5 0.5,-0.7 0,-0.2 0.2,-0.2 0.2,-0.5 0.1,0 0.1,0 0.1,0.1 0.2,-0.2 0.4,-0.5 0.6,-0.7 -0.1,0 -0.1,-0.1 -0.1,-0.2 h 0.2 c 0,-0.1 -0.2,-0.1 -0.1,-0.3 0,0 -0.1,0 -0.1,0.1 -0.1,-0.1 0,-0.2 0,-0.4 0.1,0 0.3,-0.2 0.1,-0.2 0,-0.1 0,-0.2 0.2,-0.2 -0.1,0.2 0,0.2 0,0.5 l 0.2,0.2 c 0.3,-0.4 0.5,-0.7 0.7,-1.1 -0.1,0 -0.2,0 -0.2,0.1 -0.1,-0.1 0,-0.4 0,-0.6 0.2,0.1 0.2,-0.2 0.5,-0.1 0,0.1 -0.1,0.1 -0.1,0.2 0,0.1 0.1,0.1 0.1,0 0.1,-0.1 0.2,-0.3 0.3,-0.4 0.9,-1.3 1.7,-2.7 2.5,-4.2 -0.1,-0.1 0,-0.3 0.1,-0.3 -0.1,-0.1 -0.2,-0.1 -0.1,-0.3 h 0.1 c 0.1,0.1 0.1,0.2 0.1,0.4 l 0.6,-1.2 c 0.3,-0.6 0.6,-1.3 0.9,-1.9 0,0 0,-0.1 -0.1,-0.1 v -0.2 h 0.1 c 0,0.1 0,0 0,0 -0.1,0 -0.1,0.1 0,0.1 0,-0.1 0,-0.1 0.1,-0.2 0,-0.1 -0.1,-0.3 0,-0.4 0.1,0 0.1,0.1 0.2,0.2 2.9,-6.4 5,-13.9 6,-22.6 -6.2,-1.5 -12.9,-1.9 -19.6,-2.3 z"
     id="path6"
     style="fill:#000000"
     inkscape:connector-curvature="0" />
  <circle
     class="st1"
     cx="369.39999"
     cy="288.57455"
     r="13.5"
     id="circle8"
     style="fill:#ffffff" />
  <path
     class="st1"
     d="m 273.1,57.274565 c 0.9,0.4 1.6,0.9 2.3,1.5 0.7,0.6 1.1,1.3 1.5,2.2 0.4,0.8 0.6,1.7 0.6,2.7 v 35.7 c 0,0.3 -0.1,0.6 -0.3,0.800005 -0.2,0.2 -0.5,0.3 -0.8,0.3 h -8.5 c -0.3,0 -0.6,-0.1 -0.8,-0.3 -0.2,-0.200005 -0.3,-0.500005 -0.3,-0.800005 v -32.7 H 260 v 32.6 c 0,0.3 -0.1,0.6 -0.3,0.800005 -0.2,0.2 -0.5,0.3 -0.8,0.3 h -7.7 c -0.3,0 -0.6,-0.1 -0.8,-0.3 -0.2,-0.200005 -0.3,-0.500005 -0.3,-0.800005 v -32.6 h -6.8 v 32.6 c 0,0.7 -0.4,1.100005 -1.2,1.100005 h -8.4 c -0.8,0 -1.2,-0.400005 -1.2,-1.100005 v -41.4 c 0,-0.7 0.4,-1.1 1.2,-1.1 h 36.8 c 0.8,-0.1 1.7,0.1 2.6,0.5 z m 41.3,32.6 c 0.3,0 0.6,0.1 0.8,0.3 0.2,0.2 0.3,0.5 0.3,0.8 v 8.2 c 0,0.3 -0.1,0.6 -0.3,0.8 -0.2,0.200005 -0.5,0.300005 -0.8,0.300005 h -29 c -0.8,0 -1.2,-0.400005 -1.2,-1.200005 v -41.2 c 0,-0.8 0.4,-1.2 1.2,-1.2 h 8.9 c 0.8,0 1.2,0.4 1.2,1.2 v 30.8 c 0,0.3 0.1,0.6 0.4,0.8 0.2,0.2 0.5,0.3 0.9,0.3 h 17.6 z m 44.7,-33.2 c 0.3,0 0.6,0.1 0.9,0.3 0.2,0.2 0.4,0.5 0.4,0.8 v 41.4 c 0,0.3 -0.1,0.6 -0.4,0.8 -0.2,0.200005 -0.5,0.300005 -0.9,0.300005 h -9 c -0.3,0 -0.6,-0.1 -0.9,-0.300005 -0.2,-0.2 -0.4,-0.5 -0.4,-0.8 v -14.3 c 0,-0.3 -0.1,-0.6 -0.3,-0.8 -0.2,-0.2 -0.5,-0.3 -0.8,-0.3 h -12.8 c -0.3,0 -0.6,0.1 -0.9,0.3 -0.2,0.2 -0.4,0.5 -0.4,0.8 v 14.4 c 0,0.800005 -0.4,1.200005 -1.2,1.200005 h -8.9 c -0.8,0 -1.2,-0.4 -1.2,-1.200005 v -41.4 c 0,-0.8 0.4,-1.2 1.2,-1.2 h 8.9 c 0.8,0 1.2,0.4 1.2,1.2 v 14 c 0,0.8 0.4,1.2 1.2,1.2 h 12.8 c 0.3,0 0.6,-0.1 0.8,-0.3 0.2,-0.2 0.3,-0.5 0.3,-0.8 v -14 c 0,-0.3 0.1,-0.6 0.4,-0.8 0.2,-0.2 0.5,-0.3 0.9,-0.3 h 9.1 z"
     id="path10"
     inkscape:connector-curvature="0"
     style="fill:#000000" />
  <g
     id="minimum"
     class="st2"
     style="display:none"
     transform="translate(0,95.299988)">
    <path
       class="st3"
       d="m 256.9,174 c 0,-0.2 0.2,-0.4 0.4,-0.4 h 2 c 0.2,0 0.4,0.2 0.4,0.4 v 11 h 5.5 c 0.2,0 0.4,0.2 0.4,0.4 v 1.6 c 0,0.2 -0.2,0.4 -0.4,0.4 h -7.8 c -0.2,0 -0.4,-0.2 -0.4,-0.4 v -13 z m 20.7,-0.6 c 4.3,0 7.7,3.2 7.7,7.1 0,3.9 -3.4,7.1 -7.7,7.1 -4.3,0 -7.7,-3.1 -7.7,-7.1 0,-3.9 3.4,-7.1 7.7,-7.1 z m 0,11.6 c 2.7,0 4.9,-2 4.9,-4.5 0,-2.5 -2.2,-4.5 -4.9,-4.5 -2.7,0 -4.9,2.1 -4.9,4.5 0,2.5 2.2,4.5 4.9,4.5 z m 20.5,-11.6 c 2.2,0 3.7,0.6 5.2,1.8 0.2,0.2 0.2,0.4 0,0.6 L 302,177 c -0.2,0.2 -0.4,0.2 -0.5,0 -0.9,-0.7 -2.1,-1.2 -3.3,-1.2 -2.7,0 -4.8,2.1 -4.8,4.6 0,2.5 2.1,4.5 4.8,4.5 1.3,0 2.4,-0.5 3.3,-1.1 0.2,-0.1 0.4,-0.1 0.5,0 l 1.3,1.3 c 0.2,0.1 0.1,0.4 0,0.5 -1.5,1.3 -3.3,1.9 -5.2,1.9 -4.3,0 -7.7,-3.1 -7.7,-7.1 0,-3.8 3.4,-7 7.7,-7 z m 9.5,13.5 6.7,-13.2 c 0.1,-0.1 0.2,-0.2 0.4,-0.2 h 0.2 c 0.2,0 0.3,0.1 0.4,0.2 l 6.6,13.2 c 0.1,0.3 0,0.5 -0.4,0.5 h -1.9 c -0.3,0 -0.5,-0.1 -0.6,-0.4 l -1,-2.1 h -6.4 l -1,2.1 c -0.1,0.2 -0.3,0.4 -0.6,0.4 h -2 c -0.4,0 -0.5,-0.3 -0.4,-0.5 z m 9.2,-4.2 -2.1,-4.3 h -0.1 l -2.1,4.3 z m 10.4,-8.7 c 0,-0.2 0.2,-0.4 0.4,-0.4 h 2 c 0.2,0 0.4,0.2 0.4,0.4 v 11 h 5.5 c 0.2,0 0.4,0.2 0.4,0.4 v 1.6 c 0,0.2 -0.2,0.4 -0.4,0.4 h -7.8 c -0.2,0 -0.4,-0.2 -0.4,-0.4 v -13 z m -48.8,71.9 h -5.8 c -0.2,0 -0.4,0.2 -0.4,0.4 v 14.8 c 0,0.2 0.2,0.4 0.4,0.4 h 5.8 c 4.7,0 8.5,-3.5 8.5,-7.8 0.1,-4.3 -3.8,-7.8 -8.5,-7.8 z m -0.2,12.9 h -2.8 v -10.2 h 2.8 c 3.2,0 5.5,2.2 5.5,5.1 -0.1,2.9 -2.4,5.1 -5.5,5.1 z m 26.8,2.1 -7.5,-15 c -0.1,-0.1 -0.2,-0.2 -0.4,-0.2 h -0.2 c -0.2,0 -0.3,0.1 -0.4,0.2 l -7.5,15 c -0.1,0.3 0,0.6 0.4,0.6 h 2.1 c 0.4,0 0.6,-0.2 0.7,-0.4 l 1.2,-2.4 h 7.3 l 1.2,2.4 c 0.2,0.3 0.3,0.4 0.7,0.4 h 2.1 c 0.2,0 0.4,-0.3 0.3,-0.6 z m -10.5,-4.8 2.4,-4.9 h 0.1 l 2.4,4.9 z m 17.1,-2.1 -5.5,-7.5 c -0.2,-0.3 0,-0.6 0.4,-0.6 h 2.5 c 0.2,0 0.3,0.1 0.4,0.2 l 3.9,5.1 3.9,-5.1 c 0.1,-0.1 0.2,-0.2 0.4,-0.2 h 2.5 c 0.4,0 0.6,0.4 0.4,0.6 l -5.6,7.4 v 7.1 c 0,0.2 -0.2,0.4 -0.5,0.4 H 312 c -0.3,0 -0.5,-0.2 -0.5,-0.4 v -7 z"
       id="path12"
       inkscape:connector-curvature="0"
       style="display:inline" />
    <g
       class="st3"
       id="g18"
       style="display:inline">
      <path
         d="m 254.6,216.4 v -8.9 c 0,-0.1 0,-0.2 -0.1,-0.2 0.1,0 0.1,0 0.1,-0.1 v -7.7 c 0,-0.1 0,-0.2 -0.1,-0.2 h 0.1 v -2.2 h -0.2 v 0.1 c 0,0 -0.1,0 -0.1,-0.1 H 253 v 0.2 h -0.1 c 0,-0.1 -0.1,-0.2 0.1,-0.2 h -0.7 c 0,0 -0.1,0.1 0,0.1 0,0 0,0.1 -0.1,0.1 0,0 0,-0.1 0.1,-0.1 h -1.4 c 0,0 0.1,0.1 0,0.1 0,0.1 0.1,0.1 0.1,0.2 h -0.1 c 0.1,0 0.1,-0.2 0,-0.2 0,-0.1 0.1,0 0.1,0 0,-0.1 0,-0.1 -0.1,-0.1 h -1.4 c 0,0 -0.1,0 0,0.1 v -0.1 h -1 v 0.1 h -1.3 v 0.1 c -0.1,0 -0.1,0 -0.2,-0.1 h -1.3 v 0.2 h -0.2 v -0.2 h -0.2 v 1.2 c 0,0 0.1,0.1 0.1,0 h -0.1 v 0.5 c 0.1,0.1 0.1,0.2 0,0.3 v 4.1 h 0.1 v 0.1 c 0,0 -0.1,0 -0.1,-0.1 v 2.1 c 0.1,0.1 0.1,0.2 0.1,0.3 h -0.1 v 5.8 c 0,0.1 0.1,0.2 0.1,0.3 h -0.1 v 0.4 c -0.3,0 -0.7,0 -1,0.1 0,0.1 -0.1,0 -0.2,0 h -0.6 c 0,0 -0.1,0.1 -0.2,0 H 243 c 0,0.1 0.1,0.3 0,0.4 -0.1,-0.1 -0.1,-0.3 -0.1,-0.4 h -0.8 c 0.1,0 0.1,0.3 0.1,0.4 0,0 0,0.1 -0.1,0.1 -0.1,-0.2 0,-0.3 0,-0.4 h -0.7 c 0.1,0.1 0.1,0.2 0.1,0.4 h -0.2 v -0.4 h -0.6 v 0.4 c -0.2,0 -0.2,-0.2 -0.1,-0.4 H 240 v 0.4 c -0.2,0 -0.2,-0.4 -0.1,-0.3 -0.2,0 -0.5,0 -0.7,0.1 -0.2,0 -0.5,0 -0.7,0.1 0.1,0.1 0.1,0.3 0.1,0.4 -0.1,0 -0.1,-0.2 -0.1,-0.3 -0.2,0 -0.5,0 -0.7,0.1 0.1,0.1 0.1,0.2 0.1,0.3 h -0.1 V 213 h -0.6 c 0,0.1 0,0.1 0.1,0.2 0,0.1 -0.1,0.1 -0.1,0.2 -0.1,0 -0.1,-0.1 -0.1,0 v -0.3 h -0.7 c 0,0.1 0,0.2 0.1,0.3 h -0.1 v -0.3 c -0.2,0 -0.5,0 -0.7,0.1 v 0.2 c -0.1,0 -0.1,-0.2 0,-0.2 H 235 v 0.2 c -0.1,0 -0.1,-0.1 -0.1,-0.2 h -0.6 v -3.6 c 0,0 0,-0.1 -0.1,-0.1 0,0 0.1,-0.1 0.1,0 v -4.6 h -0.1 v -0.5 h -0.1 v -0.5 c 0,0 0,-0.1 0,0 v -0.2 h 0.1 v -0.3 c 0.1,-0.1 -0.2,-0.3 0,-0.4 0,-0.1 0,0 -0.1,0 l 0.1,-0.1 v -0.4 c -0.1,-0.1 -0.1,-0.2 0,-0.3 v -0.5 h -0.1 c 0,-0.1 0.1,-0.1 0,-0.2 h 0.1 v -0.1 c 0,0 -0.1,0 0,0 -0.1,0 0,-0.1 0,-0.1 V 201 c 0,-0.1 -0.1,-0.1 -0.1,-0.2 0.1,-0.1 0.1,-0.2 0,-0.3 0.1,0.1 0.1,0 0.1,-0.1 v -0.1 h -0.1 c 0,-0.1 0.1,-0.1 0,-0.2 0,-0.1 0,0 0.1,0 0,0 -0.1,0 0,-0.1 v -0.1 h -0.1 0.1 v -0.2 c 0,-0.1 0,-0.1 -0.1,-0.1 0,-0.1 0.1,-0.1 0,-0.1 v -0.6 H 234 v -0.4 c 0.2,0.1 0.1,0.2 0.1,0.4 V 198 H 234 v -0.1 c 0,-0.1 0.1,-0.1 0.1,-0.1 -0.1,0.1 0,-0.1 -0.1,-0.2 0.1,0 0.1,0.1 0.1,0.2 v -0.6 h -0.4 c 0.1,0 0.1,0.1 0,0.1 0.1,0 0.1,0.1 0.1,0.1 0,0 0,0.1 -0.1,0.1 v -0.3 h -1.2 c 0,0.1 0.1,0 0.1,0 h -0.1 v -0.1 h -1.4 v 0.1 H 231 v -0.1 h -0.7 v 0.1 c -0.1,0 -0.1,-0.1 -0.1,-0.1 h -0.6 v 0.1 c -0.1,0 -0.1,-0.1 0,-0.1 h -0.8 l 0.1,0.1 v 0.1 c 0,0 -0.1,-0.1 -0.1,-0.2 h -0.7 v 0.1 c 0.1,-0.1 0.1,0 0.1,0.1 v -0.1 0.1 c -0.1,0 0,-0.1 -0.1,-0.2 h -3.7 v 32.5 h 0.1 v 1.9 h -0.1 v 1.6 h 0.1 c 0,0 0,0.1 -0.1,0.1 v 1.3 c 0.1,-0.1 0.1,-0.1 0.2,-0.1 0,0.1 -0.2,0.1 -0.2,0.2 h -0.1 v 1.5 c 0,0 0.1,0 0.1,-0.1 0,0.1 -0.1,0.1 -0.1,0.2 v 4.4 c 0,0 0.1,-0.1 0.2,-0.1 v 0.1 h -0.1 v 1.7 h 0.1 c 0,0 0,0.1 -0.1,0.1 v 1.3 c 0,0 0.1,-0.1 0.2,-0.1 v 0.1 c 0.8,-0.2 1.6,-0.4 2.3,-0.5 h -0.1 c 0,-0.1 0.2,-0.2 0.3,-0.2 0,0.1 -0.1,0.2 -0.2,0.2 0.5,-0.1 1,-0.2 1.4,-0.3 h 0.1 c 0.3,-0.1 0.6,-0.1 0.9,-0.2 l 0.1,-0.1 c 0.1,0 0,0.1 -0.1,0.2 0.6,-0.1 1.2,-0.3 1.8,-0.4 0.3,-0.1 0.6,-0.1 0.9,-0.2 l 0.1,-0.1 v 0.1 H 232 c 0.6,-0.1 1.1,-0.2 1.7,-0.4 V 241 c 0,0 0,0.1 -0.1,0.1 -0.1,0 0,-0.1 -0.1,-0.1 0,-0.1 0.1,-0.1 0.1,-0.1 v -1.5 h -0.1 c 0.1,0 0.1,-0.1 0.1,-0.2 v -1.6 c -0.1,0.1 -0.1,0.1 -0.1,0.2 0,0 -0.1,0 -0.1,-0.1 0.1,0 0.1,-0.1 0.2,-0.2 v -0.3 0.1 c -0.1,0 -0.1,0 -0.1,-0.1 0.1,0 0.1,-0.1 0.1,-0.1 v -0.2 l -0.1,-0.1 h 0.1 v -0.9 0.1 c -0.1,0 -0.1,0.1 -0.2,0 l 0.1,-0.1 v -0.1 l 0.1,-0.1 v -0.2 h -0.1 c 0,-0.1 0,-0.1 0.1,-0.1 v -1.2 c -0.1,0 -0.1,0.1 -0.2,0.1 v -0.1 c 0,0 0.1,0 0.1,-0.1 h 0.1 V 234 h -0.1 l 0.1,-0.1 v -0.8 c -0.1,0 -0.2,0.1 -0.2,0.2 -0.1,0 0,0 0,-0.1 0,0.1 -0.1,-0.1 0,-0.1 v 0.1 c 0,-0.1 0.1,-0.1 0.2,-0.2 v -0.2 0.1 h -0.1 c -0.2,-0.1 0.1,-0.1 0.1,-0.2 v -0.3 h 0.1 v -0.9 c 0,0 -0.1,0.1 -0.2,0.1 0.1,0 0,0.1 -0.1,0 0.1,0 0.1,-0.1 0.2,-0.1 h 0.1 v -0.2 l -0.1,0.1 c 0,0 0,-0.1 -0.1,-0.1 0.1,0 0.1,-0.1 0.2,-0.1 V 231 l -0.1,-0.1 h 0.1 v -0.6 l -0.3,0.3 c -0.1,0 -0.1,-0.1 0,-0.1 l 0.1,-0.1 c -0.1,-0.1 0.1,0 0.1,0 v -0.1 h 0.1 v -0.5 h -0.1 c 0,0 -0.1,0 0,-0.1 0,0 0.1,0 0.1,-0.1 v -1.1 c 0,0 -0.1,0 -0.1,0.1 -0.1,0 0,0.1 0,0.1 0,0 0,-0.1 -0.1,0 -0.1,-0.2 0.1,-0.1 0.2,-0.3 v -0.2 l -0.1,0.1 v -0.1 h 0.1 v -0.5 h -0.1 c 0,0 0.1,-0.1 0,-0.1 V 227 l -0.1,0.1 V 227 h 0.1 v -0.1 h 0.1 v -0.2 h -0.1 c 0,0 0,-0.1 0.1,-0.1 v -1.1 c -0.1,0 -0.1,0 -0.2,0.1 v -0.1 c 0,0.1 0.1,0 0.1,0 l 0.1,0.1 c 0,0 -0.1,0 0,-0.1 h 0.1 v -0.3 h -0.1 v -0.7 h 0.3 l 0.1,0.1 c 0.1,0 0.3,0 0.4,-0.1 0.4,-0.1 0.8,-0.1 1.3,-0.1 h 0.1 c 0.4,0 0.8,-0.1 1.2,-0.1 0.1,0 0.1,0 0.1,-0.1 0.1,0 -0.1,0.1 0,0.1 1.4,-0.2 2.8,-0.3 4.2,-0.5 v -0.3 c 0.1,0 0.1,0.1 0.2,0.2 v 0.1 c 0.2,0 0.4,0 0.7,-0.1 v -0.1 c 0,0 0.1,0 0.1,0.1 0.9,-0.1 1.9,-0.2 2.8,-0.3 v 3.3 h 0.1 c 0,0.1 0,0 0.1,0 0,0.1 -0.1,0.1 -0.1,0.1 v -0.1 h -0.1 v 4.5 c 0,0 0.1,0 0.1,-0.1 0,0.1 -0.1,0.1 -0.1,0.1 v 5.3 h 0.1 c 0,0 -0.1,0 -0.1,0.1 v 1.2 c 0,0 0.1,0 0.1,-0.1 0,0.1 -0.1,0.1 -0.1,0.1 0,0 0.1,0 0,0.1 v 1.8 c 0,0 0,-0.1 0.1,-0.1 h -0.1 c -0.1,0 0,0.1 -0.1,0 v 0.1 l -0.1,-0.1 v 0.5 c 0.5,-0.1 1,-0.2 1.6,-0.3 0,0 -0.1,0 -0.1,-0.1 0.1,-0.1 0.2,0 0.1,-0.1 0,-0.1 0.1,0 0.1,0 v 0.1 c 0,0 -0.1,0 -0.1,0.1 0.1,0 0.2,0 0.3,-0.1 l 0.1,-0.1 v 0.1 c 2.5,-0.4 5,-0.8 7.6,-1.2 0,-7.1 0.1,-14.2 0.1,-21.3 -0.2,-0.7 -0.2,-0.8 -0.1,-0.8 z m 104.6,6.1 -0.3,-0.6 -0.1,0.1 v -0.1 c 0,0 0,-0.1 0.1,-0.1 -0.1,-0.2 -0.2,-0.4 -0.3,-0.7 l -0.1,0.1 c 0,0 0.1,-0.1 0.1,0 0,0 0,-0.1 -0.1,-0.1 1,-0.7 1.9,-1.4 2.6,-2.2 0.2,-0.3 0.5,-0.6 0.7,-0.9 -0.1,0 -0.1,-0.1 -0.1,-0.2 0.1,0 0.1,0.1 0.1,0 h 0.1 c 0,0 0,-0.1 0.1,-0.1 0,0 -0.1,0.1 -0.1,0 l 0.1,-0.1 c 0.6,-0.9 1.1,-1.8 1.6,-2.8 h 0.1 c 0.1,-0.1 0.1,-0.3 0.2,-0.4 v -0.2 c -0.1,0 -0.1,0.1 -0.2,0.1 0,0 0,-0.1 -0.1,-0.1 0.1,0 0.1,0 0.2,-0.1 h 0.1 c 0.9,-2.3 1.3,-4.9 1.5,-7.6 v -0.1 h 0.1 c 0.1,-0.8 0.1,-1.7 0.1,-2.5 h -0.1 v -0.1 h 0.1 v -4.4 h -0.1 0.1 V 198 h -4.1 c 0,0.1 0,0 -0.1,0 H 360 c 0,0 -0.1,0.1 0,0.2 -0.1,0 -0.1,0.1 -0.2,0.1 0,0 0,-0.1 -0.1,-0.1 0,0 0.1,0 0,-0.1 0.1,-0.1 0.1,0 0.2,-0.1 h -2.8 c -0.1,0.1 -0.1,0.1 -0.2,0.1 0,0 0,-0.1 0.1,-0.1 h -0.9 c 0,0 -0.1,0.1 -0.2,0 h -0.1 v 0.9 c 0,0 0,-0.1 0.1,-0.1 v 0.1 c 0,0.1 0.1,0 0.1,0.1 0,0 -0.1,0 -0.1,0.1 v 0.3 h 0.1 c 0,0 -0.1,0 -0.1,0.1 v 1.6 L 356,201 h 0.2 v 0.1 h -0.1 c 0,0 0,0.1 0.1,0.1 -0.1,0.1 -0.2,0.1 -0.1,0.1 H 356 v -0.1 0.3 l 0.1,-0.1 c 0,0.1 0.1,0 0.2,0.1 h -0.2 c 0,0 -0.1,0.1 0,0.1 0,0 -0.1,0 -0.1,0.1 v 1.5 h 0.1 v -0.1 c 0.1,0 0.1,0 0.1,-0.1 h -0.1 0.1 v 0.2 h -0.1 l -0.1,0.1 c 0,0 0.1,0.1 0,0.1 0,-0.1 0,0 -0.1,0 v 0.3 c 0,0 0.1,0 0.1,-0.1 0,0.1 0.1,0.1 0.2,0 0,0.1 -0.2,0.1 -0.2,0.2 h -0.1 v 0.2 c 0.1,0 0.1,0 0.2,-0.1 0,0.1 -0.1,0.1 -0.2,0.1 0,0.1 0,0.1 -0.1,0.2 v 0.4 c 0,0.3 0,0.6 -0.1,0.8 0,0 0,0.1 0.1,0.1 l -0.1,-0.1 c 0,0.5 -0.1,0.9 -0.2,1.3 v -0.1 c 0,0 0.2,0 0.2,-0.1 0.1,0 0,0.1 0,0.1 0,0 0.1,-0.1 0.1,0 -0.1,0.1 0,0.1 -0.2,0.2 v -0.1 c -0.1,0 0,0.1 -0.1,0.2 v -0.1 c 0,0.1 0,0.3 -0.1,0.4 0.1,-0.1 0.2,-0.3 0.3,-0.1 0,0.1 -0.1,0.2 -0.3,0.3 v -0.1 c -0.1,0.3 -0.1,0.7 -0.2,1 0.1,0 0.1,-0.1 0.2,-0.2 v 0.1 c 0,0.1 -0.2,0.1 -0.3,0.2 0.1,0 -0.1,0 0,0.1 0,0.1 -0.1,0.2 -0.1,0.4 0,0.1 -0.1,0.1 0,0.2 0,0.1 -0.1,0.2 -0.1,0.4 -0.1,0.3 -0.2,0.6 -0.4,0.9 h 0.1 c 0.1,0.1 0,0.1 -0.1,0.2 0,0 0,0.1 -0.1,0.1 -0.1,0.1 -0.1,0.3 -0.2,0.4 l 0.1,-0.1 c 0,0.1 -0.1,0.3 -0.2,0.3 -0.2,0.2 -0.3,0.4 -0.5,0.7 0,0 0.1,0 0.1,-0.1 0,0 0,0.1 0,0 -0.1,0.1 -0.2,0.3 -0.3,0.3 -0.3,0.3 -0.7,0.6 -1.1,0.9 v 0.1 c -0.2,0.1 -0.3,0.2 -0.5,0.3 h -0.1 c 0,0.1 -0.2,0.2 -0.2,0.1 h 0.1 c -0.4,0.1 -0.7,0.3 -1.1,0.3 0,0.1 -0.1,0.1 -0.1,0.1 v -0.1 c -0.1,0 -0.3,0 -0.4,0.1 0,0 -0.1,0 -0.1,0.1 -0.3,0 -0.6,0.1 -0.9,0.1 -0.1,0.1 -0.1,0.1 -0.2,0.1 0,0.1 -0.1,0.1 -0.2,0 0.1,0 0.2,-0.1 0.2,-0.2 h -0.6 c -0.1,0 -0.1,-0.1 -0.1,0.1 h -1.3 v -0.8 l -0.2,0.2 c -0.1,0 -0.1,-0.1 -0.1,-0.1 0.1,-0.1 0.2,-0.2 0.3,-0.2 V 213 h -0.1 c 0,0 0,-0.1 0.1,-0.1 v -1.7 h -0.1 c 0,0.1 -0.1,0.2 -0.2,0.1 0.1,0 0.2,-0.1 0.2,-0.2 v -0.2 c -0.1,-0.1 -0.1,-0.1 -0.1,-0.2 0,0 0.1,0 0.1,-0.1 v -0.8 c -0.1,0 -0.3,0.2 -0.5,0.4 -0.1,0 -0.1,-0.1 -0.1,-0.1 0.1,-0.1 0.4,-0.4 0.5,-0.3 v -0.5 c -0.1,0.1 -0.1,0.3 -0.3,0.3 0,-0.2 0.2,-0.2 0.3,-0.4 v -0.3 l -0.2,0.2 c 0,0 -0.1,0 -0.1,-0.1 0.1,-0.1 0.2,-0.2 0.3,-0.2 v -0.2 c -0.1,0 -0.1,-0.1 -0.1,-0.2 h 0.1 v -1.6 h -0.1 c 0,0.1 0,0.1 -0.1,0.1 -0.1,-0.2 0,-0.2 0.2,-0.3 v -0.3 h -0.1 l -0.1,-0.1 0.1,-0.1 v -1.6 c 0,0 -0.1,0.1 0,0.1 0,-0.1 -0.1,0.1 -0.2,0.1 0,-0.1 0.2,-0.2 0.3,-0.3 v -0.2 l -0.1,0.1 c 0,-0.1 -0.1,0 -0.1,-0.1 0.1,0 0.1,-0.1 0.2,-0.2 v -0.3 c 0,-0.1 -0.1,-0.1 -0.1,-0.2 h 0.1 v -0.8 h -0.1 c -0.1,0.1 -0.2,0.3 -0.4,0.3 v -0.1 c 0.1,-0.1 0.3,-0.2 0.4,-0.3 v -0.2 c 0,0.1 -0.1,0.1 -0.2,0.1 l -0.1,-0.1 c 0.1,0 0.2,-0.1 0.2,-0.2 h 0.1 V 202 c -0.1,-0.1 -0.2,-0.1 -0.1,-0.2 0.1,0 0.1,0 0.2,-0.1 v -1.2 h -0.1 0.1 v -0.4 c -0.1,0.1 -0.2,0.1 -0.2,0.2 0,0 -0.1,0 -0.1,-0.1 0.1,0 0.1,-0.1 0.1,-0.1 v 0.1 c 0,0 0.1,-0.1 0,-0.1 0.1,0 0.1,0 0.1,-0.1 v -0.2 c 0,0 -0.1,0 -0.1,0.1 0,0 0,-0.1 -0.1,-0.1 v -0.1 h 0.1 v -1.4 c -0.1,0.1 -0.2,0.2 -0.2,0.3 0,0 -0.1,0 -0.1,0.1 -0.1,0 -0.1,-0.1 -0.1,-0.2 0.1,0 0.1,-0.1 0.2,-0.2 h -0.5 c -0.1,0 -0.1,0.1 -0.2,0.1 -0.1,0 0,-0.1 0.1,-0.1 H 345 c 0,0 0,0.1 -0.1,0.1 v -0.1 h -7.8 v 6.2 h 0.1 c 0,0.1 -0.1,0.1 -0.1,0.1 v 2.1 c 0,0 0,-0.1 0,0 h 0.1 c 0.1,0 0,0 0,0 v 0.1 c -0.1,0 -0.1,0 -0.1,0.1 H 337 v 1.8 h -0.1 v 4.5 c 0.1,0 0,-0.1 0.1,-0.1 h 0.1 c 0,0.1 -0.1,0.2 -0.2,0.2 v -0.1 7 h 0.1 c 0,0 0,0.1 0.1,0.1 l -0.1,0.1 v 12 c 0.1,0 0,0.1 0,0.2 h -0.1 v 0.3 h 0.1 v 0.1 h 0.1 c 0,0 0,0.1 0,0 H 337 c 0,0 0.1,0 0,0 h -0.1 v 5.1 h 0.1 v 0.6 h -0.1 v 0.1 c 0.8,0.1 1.7,0.2 2.5,0.4 0.1,0 0.3,0 0.4,0.1 h 0.1 v 0.1 c 0.5,0.1 1,0.2 1.5,0.2 0,-0.1 0.1,-0.1 0.1,0 0,0.1 -0.1,0.1 -0.1,0 0.2,0 0.5,0.1 0.7,0.1 0.3,0.1 0.7,0.1 1,0.2 h 0.1 v 0.1 c 1,0.2 2,0.3 3.1,0.5 0,-5.3 0,-10.7 -0.1,-16 1.2,0.1 2.3,0.3 3.6,0.1 2.7,5.8 5.4,11.8 8,18 3.4,0.7 6.8,1.5 10.3,2.3 V 243 c -3,-7 -6,-13.6 -9.1,-19.9 0.2,-0.5 0.2,-0.6 0.2,-0.6 z M 292,227 c 0,0 -0.1,-0.2 -0.1,-0.3 -0.1,-0.3 -0.3,-0.6 -0.4,-0.9 -0.2,-0.5 -6.8,-15 -7.1,-15.7 h -0.1 c 0,0 0,-0.1 0.1,-0.1 -0.4,-0.9 -0.8,-1.9 -1.3,-2.8 v -0.1 c -0.5,-1 -0.9,-2 -1.4,-3 V 204 c -0.2,-0.3 -0.3,-0.7 -0.5,-1.1 0,0.1 0,0 0,0 -0.8,-1.9 -1.7,-3.6 -2.5,-5.6 h -1.8 c 0,0 0.1,0.1 0,0.1 v -0.1 h -2.2 c -0.4,1 -0.9,2 -1.3,3.1 h 0.1 v 0.1 c 0,0.1 -0.2,0.1 -0.2,0.2 v 0.1 c -0.1,0.3 -0.3,0.6 -0.4,0.8 -0.2,0.4 -0.3,0.8 -0.5,1.2 0,0.1 -0.1,0.1 -0.1,0.2 v 0.1 c 0,0.1 -0.1,0.1 -0.1,0.2 0,0 0,0.1 0.1,0.1 h -0.1 c -0.1,0.3 -0.3,0.6 -0.4,0.9 v 0.1 h -0.1 c 0,0.1 -0.1,0.1 -0.1,0.2 0.1,0 0.1,0.1 0.1,0.1 -0.1,0 -0.1,-0.1 -0.1,-0.1 -0.2,0.4 -0.4,0.8 -0.5,1.2 l 0.1,0.1 -0.1,-0.1 c 0,0.1 -0.1,0.1 -0.1,0.2 0,0 0.1,0 0.1,0.1 L 271,206 c 0,0.1 -0.1,0.1 -0.1,0.2 -0.1,0.1 -0.1,0.3 -0.2,0.4 0,0.1 -0.1,0.1 -0.1,0.2 0,0 0,0.1 0.1,0 0,0.1 -0.1,0.1 -0.1,0.1 h -0.1 c 0,0.1 0,0.1 -0.1,0.2 0,0.1 0.1,0.1 0.1,0.2 0,0 0,-0.1 -0.1,-0.1 v -0.1 c 0,0.1 -0.1,0.1 -0.1,0.2 v 0.1 c -0.1,0.2 -0.2,0.5 -0.3,0.7 v 0.1 c 0,0.1 -0.1,0.1 -0.1,0.2 l 0.1,0.1 c 0,0 0,-0.1 0.1,0 l -0.1,0.1 v -0.1 c 0,0.1 -0.1,0.1 -0.1,0.2 l 0.1,0.1 h 0.1 v 0.1 c 0,-0.1 -0.1,-0.1 -0.1,-0.2 -0.1,0.3 -0.3,0.6 -0.4,0.9 0,0.1 0.1,0.1 0.1,0.1 -0.1,0.1 -0.1,0 -0.1,0 0,0 0,0.1 -0.1,0.1 0,0 0.1,-0.1 0.1,0 h -0.1 l 0.1,0.1 v 0.1 c 0.1,0.1 -0.1,0.1 -0.1,0.2 0,0 -0.1,-0.1 -0.1,0 v -0.1 0.2 c -0.1,0.2 -0.2,0.4 -0.3,0.7 H 269 v 0.1 c 0,0.1 0,0.1 -0.1,0.2 0,0 0.1,0.1 0.1,0.2 h -0.1 c 0,0.1 -0.1,0.1 -0.1,0.2 l 0.2,0.2 h -0.1 c 0,0 -0.1,-0.1 -0.1,-0.2 -0.1,0.2 -0.2,0.5 -0.3,0.7 0,0.1 -0.1,0.2 -0.1,0.2 0,0 0,0.1 0.1,0.1 h -0.1 c 0,0.1 -0.1,0.1 -0.1,0.2 l 0.1,0.1 -0.1,-0.1 c -0.1,0.3 -0.3,0.6 -0.4,1 0,0.1 -0.1,0.2 -0.1,0.3 0,0 0,0.1 0.1,0.1 h -0.1 c 0,0.1 -0.1,0.1 -0.1,0.2 0.1,0 0.1,0.1 0.1,0.2 l -0.1,-0.1 c 0,0.1 -0.1,0.2 -0.1,0.2 0,0.1 0.1,0.1 0.2,0.2 -0.1,-0.1 -0.2,-0.1 -0.1,-0.2 -0.1,0.2 -0.2,0.5 -0.3,0.7 v 0.1 h -0.1 c 0,0.1 -0.1,0.1 -0.1,0.2 0,0 0,0.1 0.1,0.1 0,0 -0.1,0 -0.1,-0.1 0,0.1 -0.1,0.1 -0.1,0.2 l 0.1,0.1 c -0.1,0 -0.1,-0.1 -0.1,-0.1 0,0.1 -0.1,0.2 -0.1,0.3 0,0 0.1,0.1 0.1,0.2 -0.1,0 -0.1,-0.1 -0.1,-0.1 -0.1,0.2 -0.2,0.5 -0.3,0.7 0,0 0,0.1 0.1,0.1 v -0.1 c 0,0.1 -0.1,0.2 -0.1,0.3 l 0.1,0.1 c 0,0 -0.1,0 0,0 0,0 -0.1,0 0,0 l -0.1,-0.1 c -0.1,0.2 -0.2,0.5 -0.3,0.7 -2.5,5.8 -5,11.7 -7.5,17.8 v 1.5 c 3,-0.4 6.1,-0.7 9.1,-1 0.7,-1.7 1.4,-3.4 2.2,-5 2.3,-0.2 4.7,-0.3 7,-0.5 h -0.1 v -0.1 c 0.1,0 0,0.1 0.1,0.1 0.8,0 1.7,-0.1 2.5,-0.1 v -0.1 c 0.1,0 0.1,0 0,0.1 h 0.3 v -0.3 c 0,0 0,0.1 0.1,0.1 -0.1,0.1 0,0.2 -0.1,0.2 h 0.3 v -0.1 0.1 c 0.7,0 1.5,-0.1 2.2,-0.1 h 0.8 v -0.1 h 0.4 c 0,-0.1 -0.1,-0.1 0,-0.1 0.1,0 0,-0.1 0,-0.1 -0.1,0 -0.1,-0.2 0,-0.2 0.1,0 0.1,0.1 0.1,0.2 h 0.1 v 0.2 h 0.6 c 0.1,0.3 0.3,0.6 0.4,0.9 0,-0.1 0,0 0,0 0.2,0 0.2,-0.3 0.2,0.7 0.2,0 0.4,0.7 0.6,1.1 v -0.2 c 0.1,0.1 0.2,0.2 0.2,0.3 h -0.1 c 0.3,0.6 0.6,1.2 0.8,1.8 0.1,0 0.3,0.1 0.4,0.1 -0.1,0 -0.1,-0.1 -0.1,-0.1 h 0.1 c 0,0 -0.1,0 0,0 v 0.1 h 0.7 v -0.1 0.1 h 0.6 v -0.1 h 0.1 v 0.1 h 0.6 c 0,-0.1 0,-0.3 0.1,-0.3 -0.1,0.1 0,0.2 0.1,0.3 h 0.6 v -0.2 h 0.1 v 0.2 h 0.6 v -0.2 c 0.1,0 0.1,0.1 0.1,0.2 h 0.7 v -0.2 c 0.1,0 0.1,0.1 0.1,0.2 h 0.7 v -0.2 c 0,-0.2 0.1,0.1 0.1,0.2 h 0.7 c -0.1,-0.1 -0.1,-0.1 0,-0.2 0.1,0 0.1,0.1 0,0.2 h 0.8 c 0,-0.1 -0.1,-0.1 -0.1,-0.2 0,-0.1 0.1,-0.1 0,-0.1 0.2,0 0.2,0.2 0.1,0.2 0,0 0.1,0.1 0,0.1 h 0.7 v -0.2 c 0.1,-0.1 0.3,0.1 0.3,0.2 h 1.2 v -1.4 c -0.5,-0.1 -3.8,-6.6 -3.9,-6.9 z m -19.9,-23.8 c 0,0 0.1,0 0,0 0.1,0 0.1,0 0,0 0.1,0 0.1,0 0,0 z m 8.6,19.6 c 0,0 -7.3,0.1 -8.3,0.1 0.1,-0.2 0.1,-0.3 0.2,-0.5 0,0 -0.1,0 -0.1,-0.1 h 0.1 c 0.5,-1.3 1.1,-2.6 1.6,-4 0.1,-0.1 0.1,-0.2 0.2,-0.4 v 0.3 c 0.2,-1 0.3,-0.9 0.5,-1.3 v -0.2 c 0.1,-0.2 0.2,-0.4 0.2,-0.6 V 216 h 0.1 c 0.1,-0.3 0.2,-0.5 0.3,-0.8 v -0.1 c 0,-0.1 0.1,-0.2 0.1,-0.2 v -0.1 l 0.1,0.1 c 0.2,-0.4 0.3,-0.8 0.5,-1.2 0,0 -0.1,-0.2 0,-0.1 h 0.1 c 0.1,-0.3 0.3,-0.7 0.4,-1 0,0 0.3,0.6 0.4,0.9 l 1.1,2.6 c 0,0 0.4,0.8 0.3,0.8 l 0.4,0.9 0.6,1.5 v -0.1 h 0.1 v 0.2 c 0,0.1 0,0.1 0.1,0.2 v 0.1 c 0,0.4 1.1,3.1 1,3.1 z m 46,-1 c 0,0.1 0,0.1 -0.1,0.2 -0.4,0.1 -0.9,0.1 -1.3,0 -1.6,-0.4 -3.5,2 -2.7,3.5 0.2,0.4 0.4,0.8 0.4,1.2 -0.6,0.6 -2.4,1.7 -3.5,1.9 -0.3,-0.2 -0.6,-0.5 -0.8,-0.9 -0.2,-0.4 -0.7,-0.6 -1.2,-0.7 -0.7,0.2 -1.4,0.3 -2.2,0.3 -0.5,0.2 -0.8,0.6 -0.9,1 -0.1,0.4 -0.3,0.8 -0.6,1.1 -0.3,0 -0.8,-0.1 -1.2,-0.2 h -0.1 c -0.9,-0.2 -1.8,-0.5 -2.5,-0.8 -0.1,-0.4 -0.1,-0.9 0,-1.3 v -0.3 0.1 c -0.1,0 0.1,-0.2 0,-0.2 0,0 0.1,0 0.1,0.1 0,-0.3 -0.1,-0.6 -0.2,-0.8 -0.1,-0.1 -0.1,-0.2 -0.2,-0.3 -0.4,-0.3 -0.8,-0.6 -1.1,-1 -0.7,-0.4 -1.4,-0.5 -2,-0.2 -0.2,0.1 -0.5,0.2 -0.7,0.3 0,0 -0.1,0.1 -0.1,0.2 v -0.1 h -0.5 l -0.3,-0.3 h -0.1 c 0,-0.1 0,-0.1 -0.1,-0.1 -0.6,-0.8 -1.3,-2.1 -1.5,-2.7 0.1,-0.4 0.5,-0.7 0.8,-0.9 v -0.1 c 0.1,0 0.1,-0.1 0.2,-0.1 v -0.1 c 0.1,0.1 0.1,0 0.1,-0.1 l 0.1,0.1 c 0.1,-0.1 0.2,-0.2 0.2,-0.3 v -0.2 h 0.1 c 0.4,-0.7 0.5,-1.7 0.1,-2.5 h -0.1 c 0.1,-0.1 0,0 -0.1,-0.1 0,-0.1 0,-0.1 0.1,-0.1 -0.1,0 0,-0.1 0,-0.1 -0.2,-0.4 -0.6,-0.7 -1.1,-0.9 h -0.1 c -0.5,-0.1 -1.1,-0.5 -1.2,-0.7 v -0.3 c 0,-0.1 0,-0.2 0.1,-0.4 0,-0.2 0.1,-0.5 0.2,-0.8 V 214 c 0.1,-0.6 0.3,-1.1 0.5,-1.6 0,-0.1 0.1,-0.2 0.1,-0.3 0.4,-0.2 0.9,-0.2 1.4,-0.1 0.5,0.1 1.1,-0.1 1.6,-0.5 0.1,-0.3 0.3,-0.6 0.4,-0.8 h -0.1 v -0.1 c 0,0 0.1,0 0.1,-0.1 v -0.1 h 0.1 c 0.1,-0.2 0.3,-0.4 0.4,-0.6 0.1,-0.1 0.2,-0.2 0.2,-0.3 0,-0.2 0.1,-0.3 0,-0.5 0,0 -0.1,0.1 0,0.2 0,0 -0.1,0 -0.1,-0.1 h 0.1 V 209 c 0,0 0,-0.1 0.1,-0.1 0,-0.2 -0.1,-0.3 -0.1,-0.4 -0.1,-0.1 -0.1,-0.2 -0.1,-0.3 h -0.1 v -0.1 h 0.1 c -0.1,-0.3 -0.1,-0.6 -0.1,-0.8 0,0 -0.1,0 -0.1,0.1 0,0 0.1,0 0,-0.1 h 0.1 v -0.1 c 0.4,-0.3 1,-0.7 1.6,-1 h 0.1 c 0.1,-0.1 0.2,-0.1 0.3,-0.2 0,0 0.2,-0.1 0.2,-0.2 0,0 0,0.1 -0.1,0.1 0.5,-0.2 0.9,-0.5 1.2,-0.5 0.1,0.1 0.3,0.2 0.5,0.3 l 0.1,-0.1 c 0,0 -0.1,0 0,0.1 H 311 c 0.1,0.1 0.2,0.2 0.3,0.4 l 0.1,0.1 c 0.1,0.1 0.1,0.2 0.2,0.3 h 0.1 v 0.1 l 0.2,0.2 c 0.1,0 0.1,-0.1 0.2,-0.2 0,0.1 -0.1,0.2 -0.2,0.2 h 0.1 c 0.3,-0.1 0.7,-0.1 1,-0.2 h 0.2 v -0.1 h 0.2 c 0,0.1 0,0 0,0 0,0 0,0.1 0.1,0.1 l -0.1,0.1 v 0.1 c 0,0 -0.1,-0.1 -0.1,0 h 0.4 l 0.1,-0.1 c 0,0.1 -0.1,0 0,0.1 h -0.1 1.5 c 0.1,-0.1 0.2,-0.1 0.3,-0.2 0,0 -0.1,0 -0.1,0.1 v -0.1 c 0,0 0.1,0 0.1,-0.1 h 0.1 v -0.1 h 0.1 c 0,0.1 0,0 -0.1,0 h 0.1 v 0.1 c 0.2,-0.2 0.3,-0.4 0.3,-0.6 0,-0.2 0.1,-0.4 0.2,-0.5 v -0.1 c 0.1,-0.2 0.3,-0.4 0.4,-0.5 1.3,0.1 2.9,0.6 3.6,1 0.1,0.3 0.2,0.9 0,1.3 -0.4,1.4 2.2,3.4 3.5,2.7 0.4,-0.2 0.8,-0.3 1.2,-0.3 0.5,0.7 1.5,2.1 1.8,3.2 1.6,0.1 3.2,0.1 4.9,0.2 -1.4,-10.5 -9.4,-14.8 -16.9,-14.9 0,0.1 -0.1,0.1 -0.2,0.2 0,0 0,-0.1 -0.1,-0.1 0.1,0 0.1,-0.1 0.2,-0.1 h -2 v 0.1 c -0.1,0 -0.1,0.1 -0.1,0.1 0.1,0 0.1,-0.1 0.1,-0.1 h -0.8 c -0.3,0 -0.5,0.1 -0.8,0.1 0,0 0,0.1 0.1,0.1 -0.1,0.1 -0.1,0 -0.2,0.1 0,0 0,-0.1 -0.1,-0.1 -0.2,0 -0.5,0.1 -0.7,0.1 l -0.1,0.1 h 0.1 c 0,0 -0.1,0 -0.1,0.1 0,0 -0.1,0 -0.1,-0.1 0.1,0.1 0,0 0.1,0 0,0 0,-0.1 0.1,-0.1 -0.2,0 -0.3,0.1 -0.5,0.1 h -0.2 c -0.2,0 -0.4,0.1 -0.6,0.2 h -0.2 c -0.2,0.1 -0.5,0.1 -0.7,0.2 0,0.1 -0.2,0.1 -0.2,0.1 -0.1,0 -0.2,0.1 -0.2,0.1 0,0 0,0.1 -0.1,0 -0.3,0.1 -0.6,0.2 -0.9,0.4 0,0.1 -0.2,0.1 -0.2,0.1 -0.4,0.2 -0.8,0.4 -1.3,0.6 -0.1,0.1 -0.3,0.1 -0.4,0.2 l -0.1,0.1 -0.1,0.1 c -0.1,0 -0.1,0.1 -0.2,0.1 h -0.1 l -0.2,0.1 c -0.1,0.1 -0.2,0.1 -0.3,0.2 l -0.2,0.1 c -0.5,0.4 -1,0.7 -1.5,1.1 0,0 -0.2,0.3 -0.3,0.2 -0.1,0 -0.1,0.1 -0.2,0.1 l -0.1,0.1 c 0,0.1 0,0.2 -0.1,0.1 0,0 0,0.1 -0.1,0.1 l -0.4,0.4 -0.2,0.2 c -0.2,0.2 -0.3,0.4 -0.5,0.6 0,0 0,0.1 0,0 -0.1,0 -0.1,0.1 -0.2,0.2 -0.2,0.2 -0.3,0.4 -0.4,0.6 l -0.1,0.1 v 0.1 h -0.1 c -0.1,0.1 -0.1,0.2 -0.2,0.3 0.1,0 0,0.1 0,0 -0.1,0.2 -0.3,0.4 -0.4,0.6 0,0 0,0.1 -0.1,0.2 -0.1,0.1 -0.1,0.2 -0.2,0.3 0.1,-0.1 0.1,0 0,0.1 -0.3,0.5 -0.5,0.9 -0.7,1.4 0,0 0,0.1 -0.1,0.1 -0.1,0.1 -0.1,0.3 -0.2,0.4 v 0.1 c 0,0.1 -0.1,0.2 -0.1,0.4 0,0 0,0.1 0,0 -0.2,0.6 -0.4,1.2 -0.6,1.9 v 0.1 c -0.4,1.5 -0.6,3.1 -0.7,4.8 v 0.9 c 0,1.3 0.1,2.5 0.3,3.6 h 0.1 c 0,0 0,0.1 -0.1,0.1 0,0.3 0.1,0.5 0.1,0.8 h 0.1 c 0,0 0,0.1 -0.1,0.1 0.1,0.4 0.2,0.9 0.3,1.3 v -0.2 c 0.1,0.1 0,0.1 0,0.2 h -0.1 c 0.2,0.6 0.3,1.1 0.5,1.6 v 0.1 c 0.8,2.1 2,4 3.4,5.5 v -0.1 c 0.1,0 0.1,0.1 0.1,0.2 l 1.5,1.5 c 0,0 0,-0.1 0.1,-0.1 v 0.1 c 0.3,0.2 0.5,0.4 0.8,0.6 v 0.1 c 0.6,0.5 1.3,0.9 2,1.3 v -0.1 c 0,0 0,-0.1 0.1,-0.1 0,0 0,0.2 0.1,0.3 2.9,1.7 6.2,2.6 9.5,2.8 3.6,0.2 7.2,-0.4 10.3,-2.2 v -0.1 h 0.1 c 0.3,-0.2 0.5,-0.3 0.8,-0.5 v -0.1 0.1 c 0.1,0 0.1,-0.1 0.2,-0.1 h 0.1 c 0.3,-0.2 0.5,-0.4 0.8,-0.6 v -0.1 l 0.2,-0.2 v -0.1 h 0.1 l 0.2,-0.2 V 232 h 0.1 v -0.1 c -0.1,0 0,0.1 0,0.1 0.1,0 0.1,-0.1 0.2,-0.1 v -0.2 c 0,0 0,0.1 0,0 v 0.1 l 0.1,-0.1 v -0.2 0.1 c 0,-0.1 0.1,-0.1 0.1,-0.2 v -0.2 0.1 l 0.1,-0.1 V 231 h 0.1 v 0.1 c 0,-0.1 0.1,-0.1 0.1,-0.2 v -0.2 c 0.1,0 0,0.1 0.1,0.1 v 0.1 l 0.2,-0.2 c 0,0 0,-0.1 0,0 v -0.1 0.1 c 0,-0.1 0.1,-0.1 0.1,-0.2 0,-0.1 0.1,0 0,-0.1 0,-0.1 0.1,-0.1 0.1,-0.2 h 0.1 V 230 c 0,0 0.1,-0.1 0,0 0,0 0,-0.1 0,0 v 0.1 c 0.1,-0.1 0.1,-0.2 0.2,-0.3 v -0.1 c 0.1,0 0,-0.1 0.1,0 0,0 0,-0.1 0.1,-0.1 0.2,-0.3 0.4,-0.7 0.6,-1 v -0.2 0.1 c 0.1,-0.1 0.1,-0.2 0.2,-0.3 0.1,-0.2 0.2,-0.3 0.2,-0.5 v -0.1 c 0.7,-1.6 1.3,-3.5 1.5,-5.7 -1.7,0.1 -3.3,0 -5,-0.1 z"
         id="path14"
         inkscape:connector-curvature="0" />
      <circle
         cx="314.60001"
         cy="217.39999"
         r="3.4000001"
         id="circle16" />
    </g>
    <path
       d="m 290.5,155.3 c 0.2,0.1 0.4,0.2 0.6,0.4 0.2,0.2 0.3,0.3 0.4,0.5 0.1,0.2 0.1,0.4 0.1,0.7 v 8.9 c 0,0.1 0,0.1 -0.1,0.2 -0.1,0.1 -0.1,0.1 -0.2,0.1 h -2.1 c -0.1,0 -0.1,0 -0.2,-0.1 -0.1,-0.1 -0.1,-0.1 -0.1,-0.2 v -8.2 h -1.7 v 8.2 c 0,0.1 0,0.1 -0.1,0.2 -0.1,0.1 -0.1,0.1 -0.2,0.1 H 285 c -0.1,0 -0.2,0 -0.2,-0.1 -0.1,-0.1 -0.1,-0.1 -0.1,-0.2 v -8.2 H 283 v 8.2 c 0,0.2 -0.1,0.3 -0.3,0.3 h -2.1 c -0.2,0 -0.3,-0.1 -0.3,-0.3 v -10.4 c 0,-0.2 0.1,-0.3 0.3,-0.3 h 9.2 c 0.3,0.1 0.5,0.1 0.7,0.2 z m 10.4,8.2 c 0.1,0 0.2,0 0.2,0.1 0.1,0.1 0.1,0.1 0.1,0.2 v 2.1 c 0,0.1 0,0.2 -0.1,0.2 -0.1,0.1 -0.1,0.1 -0.2,0.1 h -7.3 c -0.2,0 -0.3,-0.1 -0.3,-0.3 v -10.3 c 0,-0.2 0.1,-0.3 0.3,-0.3 h 2.2 c 0.2,0 0.3,0.1 0.3,0.3 v 7.7 c 0,0.1 0,0.2 0.1,0.2 0.1,0.1 0.1,0.1 0.2,0.1 h 4.5 z m 11.1,-8.3 c 0.1,0 0.2,0 0.2,0.1 0.1,0.1 0.1,0.1 0.1,0.2 v 10.3 c 0,0.1 0,0.2 -0.1,0.2 -0.1,0.1 -0.1,0.1 -0.2,0.1 h -2.2 c -0.1,0 -0.2,0 -0.2,-0.1 -0.1,-0.1 -0.1,-0.1 -0.1,-0.2 v -3.6 c 0,-0.1 0,-0.2 -0.1,-0.2 -0.1,-0.1 -0.1,-0.1 -0.2,-0.1 H 306 c -0.1,0 -0.2,0 -0.2,0.1 -0.1,0.1 -0.1,0.1 -0.1,0.2 v 3.6 c 0,0.2 -0.1,0.3 -0.3,0.3 h -2.2 c -0.2,0 -0.3,-0.1 -0.3,-0.3 v -10.3 c 0,-0.2 0.1,-0.3 0.3,-0.3 h 2.2 c 0.2,0 0.3,0.1 0.3,0.3 v 3.5 c 0,0.2 0.1,0.3 0.3,0.3 h 3.2 c 0.1,0 0.2,0 0.2,-0.1 0.1,-0.1 0.1,-0.1 0.1,-0.2 v -3.5 c 0,-0.1 0,-0.2 0.1,-0.2 0.1,0 0.1,-0.1 0.2,-0.1 z"
       class="st3"
       id="path20"
       inkscape:connector-curvature="0"
       style="display:inline" />
  </g>
  <g
     class="st2"
     id="g31"
     style="display:none"
     transform="translate(0,95.299988)">
    <path
       class="st3"
       d="m 421.9,501.1 c -3.9,0.6 -7.8,1.2 -11.7,1.9 0,-6.9 0.1,-13.9 0.1,-20.8 -4.6,0.5 -9.2,1 -13.8,1.6 0,7.3 0,14.6 -0.1,21.8 -3.9,0.8 -7.8,1.7 -11.6,2.6 v -56.9 h 11.7 V 471 c 4.6,-0.4 9.2,-0.7 13.8,-1 0,-6.3 0.1,-12.5 0.1,-18.8 h 11.7 c 0,16.6 -0.1,33.2 -0.2,49.9 z m 42,-9.7 c -5.9,0.2 -11.8,0.6 -17.7,1 -0.9,2 -1.8,4.1 -2.7,6.2 -3.7,0.3 -7.5,0.7 -11.2,1.2 V 498 c 6.8,-16.6 13.6,-32.2 20.4,-47.4 h 4.9 c 6.7,15.1 13.4,29.8 20.2,44.6 v 1.7 c -3.8,0 -7.5,0.1 -11.3,0.3 -0.9,-2 -1.8,-3.9 -2.6,-5.8 z m -8.9,-22 c -1.7,4.1 -3.4,8.3 -5.1,12.5 3.4,-0.2 6.8,-0.3 10.3,-0.4 -1.8,-4.1 -3.5,-8.1 -5.2,-12.1 z m 85.3,31.5 -0.3,-49.8 h 11.6 c 0,6.5 0.1,13 0.1,19.5 0.3,0 0.6,0 0.8,0.1 11.4,0.9 10.8,-9.5 10.8,-19.5 h 11.8 c 0,11.4 0.3,22.3 -8.6,28.2 4.1,8.4 8.1,17.2 12.1,26.5 v 2.3 c -4.2,-1 -8.4,-1.9 -12.6,-2.8 -3.3,-7.7 -6.6,-15 -9.9,-22.1 -1.5,0.1 -2.9,0 -4.4,-0.2 0,6.6 0.1,13.1 0.1,19.7 -3.9,-0.8 -7.7,-1.4 -11.5,-1.9 z"
       id="path23"
       inkscape:connector-curvature="0"
       style="display:inline" />
    <g
       class="st3"
       id="g29"
       style="display:inline">
      <path
         d="m 521.4,480.4 c 0,0.1 -0.1,0.1 -0.1,0.2 -0.5,0.1 -1.1,0.2 -1.6,0 -1.9,-0.5 -4.3,2.5 -3.3,4.3 0.3,0.5 0.5,1 0.5,1.5 -0.8,0.8 -3,2 -4.3,2.4 -0.4,-0.2 -0.8,-0.7 -1.1,-1.1 -0.3,-0.5 -0.8,-0.8 -1.5,-0.9 -0.9,0.2 -1.8,0.4 -2.7,0.4 -0.6,0.3 -1,0.7 -1.2,1.2 -0.1,0.5 -0.4,1 -0.8,1.4 -0.4,0 -1,-0.1 -1.5,-0.2 h -0.1 c -1.1,-0.2 -2.3,-0.7 -3,-1 -0.1,-0.5 -0.2,-1.1 0,-1.6 0,-0.1 0.1,-0.3 0.1,-0.4 0,0 -0.1,0 -0.1,0.1 -0.1,0 0.1,-0.2 -0.1,-0.2 0,-0.1 0.1,0 0.1,0.1 0,-0.3 -0.1,-0.7 -0.3,-1 -0.1,-0.1 -0.2,-0.3 -0.2,-0.4 -0.5,-0.4 -1,-0.8 -1.4,-1.2 -0.8,-0.5 -1.8,-0.6 -2.5,-0.2 -0.3,0.2 -0.6,0.3 -0.9,0.3 0,0.1 -0.1,0.1 -0.1,0.2 -0.1,0 0,-0.1 0,-0.2 h -0.6 c -0.1,-0.1 -0.2,-0.3 -0.3,-0.4 h -0.1 c 0,-0.1 0,-0.1 -0.1,-0.2 v -0.1 c -0.7,-1 -1.6,-2.6 -1.8,-3.4 0.2,-0.5 0.6,-0.9 1,-1.2 v -0.1 c 0.1,0 0.1,-0.1 0.2,-0.1 v -0.2 c 0.1,0.1 0.1,-0.1 0.1,-0.1 l 0.1,0.1 c 0.1,-0.1 0.2,-0.2 0.3,-0.4 v -0.2 l 0.1,0.1 v -0.2 h 0.1 c 0.5,-0.9 0.6,-2.1 0.1,-3.1 -0.1,0 -0.1,0.1 -0.1,0.1 0.1,-0.1 0,0 -0.1,-0.1 0,-0.1 0.1,-0.1 0.1,-0.1 v 0.1 c -0.1,0 0,-0.1 0,-0.1 -0.3,-0.5 -0.8,-0.9 -1.4,-1.1 h -0.1 c -0.6,-0.2 -1.3,-0.6 -1.4,-0.9 v -0.4 c 0,-0.1 0,-0.3 0.1,-0.5 0.1,-0.3 0.1,-0.6 0.2,-1 0,0 0,-0.2 0.1,-0.2 0.2,-0.7 0.4,-1.4 0.6,-1.9 v -0.1 c 0.1,-0.2 0.1,-0.3 0.2,-0.4 0.5,-0.2 1.2,-0.3 1.8,-0.1 0.6,0.2 1.3,-0.1 1.9,-0.6 0.2,-0.4 0.3,-0.7 0.5,-1 h -0.1 v -0.1 c 0,-0.1 0.1,0 0.1,-0.1 h 0.1 V 466 h 0.1 c 0.2,-0.3 0.3,-0.5 0.5,-0.8 h 0.1 c 0.1,-0.1 0.2,-0.2 0.3,-0.4 0,-0.2 0.1,-0.4 0.1,-0.6 0,0.1 -0.1,0.1 0,0.2 -0.1,0 -0.1,0 -0.1,-0.1 h 0.1 v -0.1 c 0,-0.1 0,-0.1 0.1,-0.1 0,-0.2 -0.1,-0.4 -0.2,-0.5 -0.1,-0.1 -0.1,-0.2 -0.2,-0.3 h -0.1 v -0.1 h 0.1 c -0.1,-0.3 -0.1,-0.7 -0.2,-1 0,0 -0.1,0 -0.1,0.1 l -0.1,-0.1 c 0,-0.1 0.1,0 0,-0.1 h 0.1 V 462 c 0.4,-0.4 1.2,-0.8 2,-1.3 h 0.1 c 0.1,-0.1 0.3,-0.1 0.4,-0.2 0,-0.1 0.2,-0.2 0.2,-0.2 0,0 0,0.1 -0.1,0.2 0.6,-0.3 1.1,-0.6 1.5,-0.7 0.2,0.1 0.4,0.2 0.6,0.4 0.1,-0.1 0.1,-0.1 0.2,-0.1 0,0 -0.1,0.1 0,0.1 0,0 -0.1,0 -0.1,0.1 0.1,0.1 0.3,0.3 0.4,0.5 0,0.1 0.1,0.1 0.1,0.2 l 0.3,0.3 0.1,-0.1 c 0,0 -0.1,0 -0.1,0.1 0.1,0.1 0.2,0.1 0.3,0.2 0.1,0 0.2,-0.2 0.3,-0.2 0,0.1 -0.1,0.2 -0.2,0.3 h 0.1 c 0.4,-0.1 0.8,-0.2 1.2,-0.2 h 0.2 l -0.1,-0.1 c 0,0 0.1,-0.1 0.1,0 h 0.1 c 0,0.1 0,0 0.1,0 0,0.1 0,0.1 0.1,0.1 0,0.1 0,0.1 -0.1,0.1 v -0.1 0.1 c 0,0 -0.1,-0.1 -0.1,0 h 0.5 l 0.2,-0.2 c 0,0.1 -0.1,0 0,0.1 h -0.1 1.8 l 0.3,-0.3 c -0.1,0 -0.1,0 -0.2,0.1 v -0.1 c 0.1,0 0.1,0 0.1,-0.1 h 0.1 c 0.1,-0.1 -0.1,-0.1 0,-0.1 h 0.1 c 0,0.1 -0.1,0 -0.1,0 0,0 0.1,0.1 0.1,0 v 0.1 c 0.2,-0.2 0.4,-0.4 0.4,-0.7 0.1,-0.2 0.2,-0.5 0.3,-0.7 v -0.1 c 0.2,-0.3 0.3,-0.5 0.5,-0.6 1.6,0.2 3.6,0.8 4.5,1.2 0.1,0.4 0.2,1.1 0.1,1.6 -0.5,1.8 2.7,4.2 4.3,3.3 0.5,-0.3 1,-0.4 1.5,-0.4 0.7,0.8 1.8,2.6 2.3,3.9 2,0.1 3.9,0.1 6,0.2 -1.8,-13 -11.7,-18.4 -20.9,-18.5 0,0.1 -0.2,0.1 -0.2,0.2 -0.1,0 0,-0.1 -0.1,-0.1 0.1,0 0.2,-0.1 0.2,-0.1 H 505 c -0.3,0 -0.6,0 -0.9,0.1 v 0.1 c -0.1,0 -0.1,0.1 -0.2,0.1 l -0.1,-0.1 c 0.1,0 0.1,-0.1 0.1,-0.1 -0.2,0 -0.3,0 -0.5,0.1 h -0.5 c -0.3,0 -0.6,0.1 -0.9,0.1 0,0 0,0.1 0.1,0.1 -0.1,0.1 -0.2,0.1 -0.3,0.1 l -0.1,-0.1 h 0.1 c -0.3,0.1 -0.6,0.1 -0.8,0.2 l -0.1,0.1 h 0.1 c 0,0.1 -0.2,0.1 -0.2,0.1 0,0 -0.1,0 -0.1,-0.1 0.1,0.1 0,-0.1 0.1,0 l 0.1,-0.1 c -0.2,0 -0.4,0.1 -0.6,0.1 h -0.1 c -0.1,0 -0.2,0 -0.2,0.1 h -0.1 c -0.2,0.1 -0.5,0.1 -0.7,0.2 H 499 v 0.1 l -0.9,0.3 c 0,0.1 -0.2,0.1 -0.2,0.1 -0.1,0 -0.2,0.1 -0.3,0.1 0,0 0,0.1 -0.1,0 -0.4,0.1 -0.8,0.3 -1.1,0.5 0,0.1 -0.3,0.2 -0.3,0.1 -0.5,0.2 -1,0.5 -1.6,0.8 -0.2,0.1 -0.3,0.2 -0.5,0.3 -0.1,0 -0.1,0.1 -0.2,0.1 l -0.1,0.1 c -0.1,0.1 -0.2,0.1 -0.2,0.2 0,0 -0.1,0 -0.1,0.1 0,0.1 -0.2,0.2 -0.2,0.2 -0.1,0.1 -0.3,0.2 -0.4,0.3 l -0.2,0.2 c -0.6,0.4 -1.2,0.9 -1.8,1.4 l -0.3,0.3 -0.2,0.2 -0.2,0.2 c 0,0.1 0,0.2 -0.1,0.1 0,0.1 -0.1,0.1 -0.1,0.1 l -0.5,0.5 -0.2,0.2 c -0.2,0.2 -0.4,0.5 -0.6,0.7 v 0.1 l -0.2,0.2 c -0.2,0.2 -0.4,0.5 -0.6,0.7 0,0.1 0,0 0,0 0,0.1 -0.1,0.1 -0.1,0.2 v 0.1 h -0.1 c -0.1,0.1 -0.2,0.3 -0.3,0.4 0.1,0 0,0.1 0,0 -0.2,0.3 -0.4,0.5 -0.5,0.8 0,0 0,0.2 -0.1,0.2 -0.1,0.1 -0.2,0.3 -0.3,0.4 0.1,-0.1 0.1,0.1 0,0.1 l -0.9,1.8 c 0,0 0,0.1 -0.1,0.2 -0.1,0.2 -0.1,0.3 -0.2,0.5 v 0.1 c -0.1,0.1 -0.1,0.3 -0.2,0.4 0,0 0,0.1 0,0 -0.3,0.8 -0.5,1.5 -0.8,2.3 v 0.1 c -0.5,1.8 -0.8,3.8 -0.9,5.9 v 1 c 0,1.6 0.1,3 0.4,4.5 h 0.1 c 0,0.1 0,0.1 -0.1,0.1 0.1,0.3 0.1,0.6 0.2,0.9 h 0.1 c 0,0 -0.1,0.1 -0.1,0.2 0.1,0.5 0.2,1.1 0.4,1.6 0,-0.1 0,-0.2 0.1,-0.2 0.1,0.1 0,0.2 0.1,0.3 h -0.1 c 0.2,0.7 0.4,1.3 0.6,2 v 0.1 c 1,2.6 2.5,4.9 4.2,6.8 v -0.1 c 0.1,0 0.1,0.1 0.1,0.2 0.6,0.7 1.2,1.3 1.9,1.8 l 0.1,-0.1 v 0.2 c 0.3,0.3 0.6,0.5 1,0.8 v -0.1 0.1 c 0.8,0.6 1.6,1.1 2.4,1.6 v -0.1 c 0,-0.1 0,-0.1 0.1,-0.2 0,0.1 0,0.2 0.1,0.3 3.6,2 7.7,3.2 11.7,3.4 4.4,0.3 8.9,-0.5 12.7,-2.7 v -0.1 h 0.1 c 0.3,-0.2 0.7,-0.4 1,-0.6 v -0.1 0.1 c 0.1,-0.1 0.2,-0.1 0.2,-0.2 0,-0.1 0.1,0 0.1,0 0.3,-0.2 0.7,-0.5 1,-0.8 v -0.1 l 0.2,-0.2 c 0,0 0.1,-0.1 0,-0.1 h 0.1 c 0.1,-0.1 0.2,-0.1 0.2,-0.2 l -0.1,-0.1 h 0.1 v -0.2 h 0.1 c -0.1,0 0,0.1 0,0.2 l 0.2,-0.2 v -0.2 c 0,0 0,0.1 0,0 h 0.1 v 0.1 l 0.1,-0.1 v -0.1 h 0.1 v -0.1 c 0.1,0 0.1,0.1 0.1,0.1 l 0.2,-0.2 v -0.2 0.1 l 0.2,-0.2 v -0.2 c 0.1,0 0,0.1 0.1,0 v 0.1 l 0.2,-0.2 h -0.1 v -0.3 c 0.1,0 0,0.1 0.1,0.1 v 0.1 c 0.1,-0.1 0.1,-0.2 0.2,-0.3 V 491 h 0.1 v 0.1 l 0.2,-0.2 c 0,-0.1 0.1,-0.1 0.1,-0.1 l 0.2,-0.2 v -0.1 h 0.1 v -0.2 c 0,0 0.1,-0.1 0,-0.1 0,0 0,-0.1 0.1,-0.1 v 0.2 c 0.1,-0.1 0.2,-0.2 0.2,-0.3 h -0.1 v -0.2 c 0.1,0 0.1,-0.1 0.1,0 v 0.1 l 0.1,-0.1 c 0.3,-0.4 0.5,-0.8 0.8,-1.3 v -0.1 c 0,0 -0.1,0 0,-0.1 v 0.1 c 0.1,-0.1 0.1,-0.2 0.2,-0.4 l 0.3,-0.6 v -0.2 0.1 c 0.9,-2 1.6,-4.3 1.9,-7 -2.5,0.4 -4.6,0.3 -6.7,0.1 z"
         id="path25"
         inkscape:connector-curvature="0" />
      <circle
         cx="506.5"
         cy="475"
         r="4.1999998"
         id="circle27" />
    </g>
  </g>
  <path
     class="st4"
     d="m 584.3,443.27457 h -128 v 34 h 128 l -35,-17 z m -576,0 h 128 v 34 H 8.3 l 35,-17 z"
     id="path33"
     inkscape:connector-curvature="0"
     style="fill:#b53204" />
  <path
     class="st5"
     d="m 504.3,476.77457 -48,-33.5 v 97 h 48 z m -416,0 48,-33.5 v 97 h -48 z"
     id="path35"
     inkscape:connector-curvature="0"
     style="fill:#751b00" />
  <path
     class="st6"
     d="m 88.5,477.17457 h 415.8 v 63.8 H 88.5 Z"
     id="path37"
     inkscape:connector-curvature="0"
     style="fill:#c53c02" />
  <path
     class="st1"
     d="M 316.4,505.77457 H 304 c -0.3,0 -0.6,0.3 -0.6,0.6 v 6 c 0,0.3 0.3,0.6 0.6,0.6 h 4.8 v 7.5 c 0,0 -1.1,0.4 -4.1,0.4 -3.5,0 -8.5,-1.3 -8.5,-12.1 0,-10.9 5.1,-12.3 10,-12.3 4.2,0 6,0.7 7.1,1.1 0.4,0.1 0.7,-0.2 0.7,-0.6 l 1.4,-5.8 c 0,-0.1 -0.1,-0.3 -0.2,-0.5 -0.5,-0.3 -3.3,-1.9 -10.5,-1.9 -8.3,0 -16.7,3.5 -16.7,20.4 0,16.9 9.7,19.4 17.9,19.4 6.8,0 10.9,-2.9 10.9,-2.9 0.2,-0.1 0.2,-0.3 0.2,-0.4 v -18.8 c 0,-0.4 -0.3,-0.7 -0.6,-0.7 z m 63.7,-15 c 0,-0.3 -0.3,-0.6 -0.6,-0.6 h -7 c -0.3,0 -0.6,0.3 -0.6,0.6 v 13.5 h -10.8 v -13.5 c 0,-0.3 -0.3,-0.6 -0.6,-0.6 h -7 c -0.3,0 -0.6,0.3 -0.6,0.6 v 36.4 c 0,0.3 0.3,0.6 0.6,0.6 h 7 c 0.3,0 0.6,-0.3 0.6,-0.6 v -15.6 H 372 v 15.6 c 0,0.3 0.3,0.6 0.6,0.6 h 7 c 0.3,0 0.6,-0.3 0.6,-0.6 v -36.4 z m -50.6,4.8 c 0,-2.5 -2,-4.5 -4.5,-4.5 -2.5,0 -4.5,2 -4.5,4.5 0,2.5 2,4.5 4.5,4.5 2.5,0 4.5,-2 4.5,-4.5 z m -0.5,23.9 v -16.8 c 0,-0.3 -0.3,-0.6 -0.6,-0.6 h -6.9 c -0.3,0 -0.6,0.3 -0.6,0.6 v 24.1 c 0,0.7 0.4,0.9 1,0.9 h 6.3 c 0.7,0 0.9,-0.3 0.9,-0.9 -0.1,-1.2 -0.1,-6.3 -0.1,-7.3 z m 77.6,-17.3 h -6.9 c -0.3,0 -0.6,0.3 -0.6,0.6 v 17.9 c 0,0 -1.8,1.3 -4.2,1.3 -2.4,0 -3.2,-1.1 -3.2,-3.6 v -15.6 c 0,-0.3 -0.3,-0.6 -0.6,-0.6 h -7 c -0.3,0 -0.6,0.3 -0.6,0.6 v 16.8 c 0,7.2 4,9 9.6,9 4.6,0 8.2,-2.5 8.2,-2.5 0,0 0.2,1.3 0.3,1.5 0.1,0.2 0.3,0.3 0.5,0.3 h 4.5 c 0.3,0 0.6,-0.3 0.6,-0.6 v -24.4 c -0.1,-0.4 -0.3,-0.7 -0.6,-0.7 z m 18.8,-0.8 c -3.9,0 -6.6,1.8 -6.6,1.8 v -12.3 c 0,-0.3 -0.3,-0.6 -0.6,-0.6 h -7 c -0.3,0 -0.6,0.3 -0.6,0.6 v 36.4 c 0,0.3 0.3,0.6 0.6,0.6 h 4.8 c 0.2,0 0.4,-0.1 0.5,-0.3 0.1,-0.2 0.3,-1.7 0.3,-1.7 0,0 2.9,2.7 8.3,2.7 6.3,0 10,-3.2 10,-14.4 0.1,-11.4 -5.7,-12.8 -9.7,-12.8 z m -2.7,20.5 c -2.4,-0.1 -4,-1.2 -4,-1.2 v -11.5 c 0,0 1.6,-1 3.6,-1.2 2.5,-0.2 4.9,0.5 4.9,6.5 -0.1,6.3 -1.1,7.5 -4.5,7.4 z m -73.7,-19.8 h -5.2 v -6.9 c 0,-0.3 -0.1,-0.4 -0.4,-0.4 h -7.1 c -0.3,0 -0.4,0.1 -0.4,0.4 v 7.1 c 0,0 -3.6,0.9 -3.8,0.9 -0.2,0.1 -0.4,0.3 -0.4,0.6 v 4.5 c 0,0.3 0.3,0.6 0.6,0.6 h 3.6 v 10.8 c 0,8 5.6,8.8 9.4,8.8 1.7,0 3.8,-0.6 4.1,-0.7 0.2,-0.1 0.3,-0.3 0.3,-0.5 v -4.9 c 0,-0.3 -0.3,-0.6 -0.6,-0.6 -0.3,0 -1.1,0.1 -1.9,0.1 -2.6,0 -3.4,-1.2 -3.4,-2.7 v -10.2 h 5.2 c 0.3,0 0.6,-0.3 0.6,-0.6 v -5.6 c 0,-0.4 -0.2,-0.7 -0.6,-0.7 z m -178.3,16.7 h -2 v -8.2 h -9.2 v 8.2 h -2 v -17.4 h 2 v 7.4 h 9.2 v -7.4 h 2 z m 16.7,-6.6 c 0,2.1 -0.5,3.8 -1.6,5 -1.1,1.2 -2.6,1.8 -4.4,1.8 -1.2,0 -2.2,-0.3 -3.1,-0.8 -0.9,-0.5 -1.6,-1.3 -2.1,-2.4 -0.5,-1 -0.7,-2.2 -0.7,-3.6 0,-2.1 0.5,-3.8 1.6,-5 1.1,-1.2 2.5,-1.8 4.4,-1.8 1.8,0 3.3,0.6 4.4,1.8 0.9,1.3 1.5,3 1.5,5 z m -10,0 c 0,1.7 0.3,2.9 1,3.8 0.7,0.9 1.7,1.3 2.9,1.3 1.3,0 2.3,-0.4 3,-1.3 0.7,-0.9 1,-2.1 1,-3.8 0,-1.7 -0.3,-2.9 -1,-3.8 -0.7,-0.9 -1.7,-1.3 -3,-1.3 -1.3,0 -2.3,0.4 -2.9,1.3 -0.7,0.9 -1,2.2 -1,3.8 z m 22.7,3 c 0,1.2 -0.5,2.2 -1.4,2.8 -0.9,0.7 -2.2,1 -3.8,1 -1.7,0 -3.1,-0.3 -4.1,-0.8 v -1.8 c 0.6,0.3 1.3,0.6 2,0.8 0.7,0.2 1.4,0.3 2.1,0.3 1,0 1.8,-0.2 2.4,-0.5 0.6,-0.3 0.8,-0.8 0.8,-1.5 0,-0.5 -0.2,-0.9 -0.7,-1.3 -0.4,-0.4 -1.3,-0.8 -2.6,-1.3 -1.2,-0.5 -2.1,-0.8 -2.6,-1.2 -0.5,-0.4 -0.9,-0.7 -1.1,-1.2 -0.3,-0.4 -0.4,-0.9 -0.4,-1.5 0,-1.1 0.4,-1.9 1.3,-2.5 0.9,-0.6 2.1,-0.9 3.6,-0.9 1.4,0 2.8,0.3 4.1,0.9 l -0.7,1.6 c -1.3,-0.5 -2.5,-0.8 -3.6,-0.8 -0.9,0 -1.6,0.1 -2.1,0.4 -0.5,0.3 -0.7,0.7 -0.7,1.2 0,0.4 0.1,0.6 0.3,0.9 0.2,0.2 0.5,0.5 0.9,0.7 0.4,0.2 1.2,0.5 2.3,1 1.6,0.6 2.6,1.1 3.1,1.7 0.7,0.4 0.9,1.2 0.9,2 z m 8.3,2.2 c 0.4,0 0.7,0 1,-0.1 0.3,-0.1 0.6,-0.1 0.8,-0.2 v 1.5 c -0.2,0.1 -0.5,0.2 -0.9,0.3 -0.4,0.1 -0.8,0.1 -1.1,0.1 -2.5,0 -3.8,-1.3 -3.8,-4 v -7.8 h -1.9 v -1 l 1.9,-0.8 0.8,-2.8 h 1.1 v 3 h 3.8 v 1.5 h -3.8 v 7.7 c 0,0.8 0.2,1.4 0.6,1.8 0.4,0.6 0.9,0.8 1.5,0.8 z m 10.8,1.6 c -1.9,0 -3.5,-0.6 -4.6,-1.8 -1.1,-1.2 -1.7,-2.8 -1.7,-4.9 0,-2.1 0.5,-3.8 1.6,-5 1,-1.2 2.4,-1.9 4.2,-1.9 1.6,0 2.9,0.5 3.9,1.6 1,1.1 1.4,2.5 1.4,4.3 v 1.3 h -9 c 0,1.5 0.4,2.7 1.2,3.5 0.7,0.8 1.8,1.2 3.1,1.2 1.4,0 2.8,-0.3 4.2,-0.9 v 1.8 c -0.7,0.3 -1.4,0.5 -2,0.7 -0.6,0.2 -1.4,0.1 -2.3,0.1 z m -0.5,-11.9 c -1,0 -1.9,0.3 -2.5,1 -0.6,0.7 -1,1.6 -1.1,2.8 h 6.8 c 0,-1.2 -0.3,-2.2 -0.8,-2.9 -0.6,-0.5 -1.4,-0.9 -2.4,-0.9 z m 18.5,9.9 H 237 c -0.9,1.3 -2.3,2 -4.1,2 -1.7,0 -3,-0.6 -4,-1.8 -1,-1.2 -1.4,-2.8 -1.4,-5 0,-2.2 0.5,-3.8 1.4,-5 1,-1.2 2.3,-1.8 4,-1.8 1.8,0 3.1,0.6 4.1,1.9 h 0.2 l -0.1,-0.9 v -6.2 h 2 v 18.6 h -1.6 z m -4,0.4 c 1.4,0 2.3,-0.4 2.9,-1.1 0.6,-0.7 0.9,-1.9 0.9,-3.6 v -0.4 c 0,-1.9 -0.3,-3.2 -0.9,-4 -0.6,-0.8 -1.6,-1.2 -3,-1.2 -1.2,0 -2,0.5 -2.7,1.4 -0.6,0.9 -0.9,2.2 -0.9,3.8 0,1.7 0.3,2.9 0.9,3.8 0.7,0.8 1.6,1.3 2.8,1.3 z m 18.4,-16.1 h 4.9 c 2.3,0 4,0.3 5,1 1,0.7 1.6,1.8 1.6,3.3 0,1 -0.3,1.9 -0.9,2.6 -0.6,0.7 -1.4,1.1 -2.5,1.3 v 0.1 c 2.6,0.5 4,1.8 4,4.2 0,1.6 -0.5,2.8 -1.6,3.7 -1.1,0.9 -2.5,1.3 -4.4,1.3 h -6.1 z m 2,7.5 h 3.3 c 1.4,0 2.5,-0.2 3.1,-0.7 0.6,-0.4 0.9,-1.2 0.9,-2.3 0,-1 -0.4,-1.7 -1,-2.1 -0.7,-0.4 -1.8,-0.7 -3.3,-0.7 h -3 z m 0,1.7 v 6.5 h 3.6 c 1.4,0 2.5,-0.3 3.2,-0.8 0.7,-0.5 1.1,-1.4 1.1,-2.6 0,-1.1 -0.4,-1.9 -1.1,-2.4 -0.7,-0.5 -1.8,-0.8 -3.3,-0.8 h -3.5 z m 12.3,-4.8 h 2.1 l 2.9,7.5 c 0.6,1.7 1,2.9 1.2,3.7 h 0.1 c 0.1,-0.4 0.3,-1.1 0.7,-2.1 0.3,-1 1.4,-4 3.2,-9.1 h 2.1 l -5.6,14.9 c -0.6,1.5 -1.2,2.5 -2,3.1 -0.7,0.6 -1.7,0.9 -2.7,0.9 -0.6,0 -1.2,-0.1 -1.8,-0.2 v -1.6 c 0.4,0.1 0.9,0.1 1.5,0.1 1.4,0 2.3,-0.8 2.9,-2.3 l 0.7,-1.9 z"
     id="path39"
     inkscape:connector-curvature="0"
     style="fill:#ffffff" />
</svg>
